<svg xmlns="http://www.w3.org/2000/svg" xmlns:xlink="http://www.w3.org/1999/xlink" width="500" height="500" viewBox="0 0 500 500"><defs><filter id="a" x="89.195" y="320.044" width="279" height="35" filterUnits="userSpaceOnUse"><feOffset dy="3" input="SourceAlpha"/><feGaussianBlur stdDeviation="3" result="b"/><feFlood flood-color="#d6d6d6"/><feComposite operator="in" in2="b"/><feComposite in="SourceGraphic"/></filter><clipPath id="d"><rect width="500" height="500"/></clipPath></defs><g id="c" clip-path="url(#d)"><g transform="matrix(0.643, 0.766, -0.766, 0.643, 33.638, -408.453)"><path d="M42.65,6.679s-3.658,15.9-21.325,9.517C3.8,9.867,0,27.465,0,27.465S7.1-16.322,42.65,6.679Z" transform="translate(585.295 114.677) rotate(-5)" fill="#9fd85e"/><path d="M66.629,7.464A57.678,57.678,0,0,0,48.775,6.134c-5.054.517-12.3,4.114-15.512,8.4-8.4,11.18-6.951,20.183-24.171,15.293S-6.867-16.643,66.629,7.464Z" transform="matrix(0.682, -0.731, 0.731, 0.682, 611.086, 96.124)" fill="#88be4b"/><path d="M537.361,88.43C533.6,80.986,523,66.766,495.81,62.233c0,0,31.063,12.689,37.047,30.41-14.346-.348-30.447-5.549-39.175-12.987C478.232,66.49,469.56,40.3,469.56,40.3,501.54,63.385,533.232,46.347,537.361,88.43Z" transform="translate(80.393 15.12)" fill="#558b2f"/></g><g transform="translate(-92.628 -126.942)"><g transform="translate(132 60)"><path d="M196.831,165.881s16.569-40.617,12.778-64.011c-1.646-10.158-7.862-14.722,4.72-18.565s20.05-1.041,16.787,9.086-11.551,43.794-3.241,63.692" transform="translate(-48.722 5.243)" fill="#c1bc90" stroke="#529b4c" stroke-width="1"/><path d="M227.387,82.277c.076.06,7.633,6.1,4.934,14.5-2.713,8.439-4.871,18.989-4.636,22.365s-3.568,15.446-8,32.408c-1.066,4.086.093,7.059,2.719,9.117l14.52-4.583c-8.31-19.9-.022-53.565,3.241-63.692C243.068,83.4,237.492,80.186,227.387,82.277Z" transform="translate(-57.775 5.24)" fill="#9c823b" stroke="#529b4c" stroke-width="1"/><path d="M172.624,386.994,182.7,377.57l12.348,7.149,7.8-12.024,15.649,2.963,3.524-14.337,15.923-1.3-2.059-15.057,13.107-5.091-3.033-14.407,11.654-10.156-6.672-14.434,9.313-9.962-7.06-11.715,5.681-10.906-6.729-8.617,5.152-12.7-13.073-6.431,6.652-13.614-13.152-5.885,3.033-14.3-12.765-3.615,1.441-12.262-13.174-1.3-3.811-11.342-14.566,1.276-8.656-8.966-13.677,6.85-8.214-8.124-10.813,6.575L143.7,174.251l-6.065,11.265L121.8,187.654l-1.163,13.591-14,1.671,2.128,13.927-13.788,6.185,3.654,14.483-14.933,6.712L90.357,255.7,78.919,268.784l9.857,11.058-9.537,14.212,9.343,13.55-6.562,13.8,14.562,8.065-2.6,15.6,13.323,2.6,1.3,13.323,13,.217,5.927,12.9,12.487-4.015,8.016,13.649,12.132-6.066,12.457,9.315Z" transform="translate(-0.325 -35.308)" fill="#9fd85e" stroke="#529b4c" stroke-width="1"/><path d="M241.168,299.352l-5.354-21.98,4.706-12.783L232.8,252.305v-12.17l-11.091-18.088-1.905-2.672.794-1.119-5.952-13.981-1.116,13.945.82,1.154-1.931,2.707L201.324,240.17v12.17L193.6,264.625l4.706,12.783-5.354,21.98,3.665,19.229-1.067,13.477,7.55,5.1,3.995,16.174,5.376,4.853-5.311-19.778L212.415,324l-9.525-10.911,4.917-18.113-6.183-17.99,6.183-13.659-3.229-22.511,12.495-17.6,12.469,17.563-3.229,22.511,6.183,13.659-6.183,17.99,4.917,18.113-9.525,10.911,5.254,14.44-5.311,19.778,5.376-4.853,3.995-16.174,7.55-5.1L237.5,318.582Z" transform="translate(-46.28 -49.416)" fill="#86be46" stroke="#529b4c" stroke-width="1"/><path d="M293.943,360.128l-2.059-15.057,13.107-5.091-3.034-14.407,11.654-10.156-6.672-14.434,9.313-9.962-7.06-11.715,5.681-10.906-6.729-8.617,5.152-12.7-13.073-6.431,6.652-13.614-13.152-5.885,3.033-14.3-12.765-3.615,1.441-12.262-13.174-1.3-3.811-11.342-14.566,1.276-8.656-8.966-13.677,6.85-8.056-7.968-5.614,11.247,4.354,2.758,4.479,4.891,12.725,3.441.449,13.31,13.073,6.2-2.712,13.432,10.79,10.587-5.283,14.683,11.264,11.12-7.708,11.881,8.854,12.446-9.392,9.865,6.55,14.006-11.41,8.455,3.544,13.94-11.332,4.03L244.946,349.8l-14.632.873-.437,3.9L234.509,362l-5.381,5.921-.674,19.052.171.128,10.074-9.424,12.348,7.149,7.8-12.024,15.649,2.963,3.524-14.337Z" transform="translate(-56.325 -35.413)" fill="#88be4b" stroke="#558b2f" stroke-width="1"/><g transform="translate(108.103 146.473)"><g transform="translate(0.21)"><path d="M178.546,378.543l-8.173-11.891-14.73-.076L153.7,352.64l-11.588-3.424.038-.189,2.753-13.974-11.878-7.839,5.789-14.367-9.936-9.361.093-.147,8.088-12.787L128.7,279.084l10.667-11.743-6.073-14.374.091-.1L143.5,241.794l-3.452-13.314L152.8,221.56l-.276-13.342,12.549-4.137,2.6-13.853.415.078-2.651,14.1-12.489,4.118.274,13.287-12.684,6.885,3.426,13.216-10.184,11.142,6.073,14.373-10.618,11.688,8.326,11.421-8.148,12.883,9.893,9.32-5.769,14.315,11.827,7.8-.028.139L142.6,348.92l11.48,3.392,1.93,13.844,14.585.075,8.134,11.833,7.191-1.749.1.41Z" transform="translate(-128.698 -190.228)" fill="#4d794d" stroke="#529b4c" stroke-width="1"/></g><g transform="translate(11.203 37.757)"><path d="M158.3,262.346l-11.187-8.467,15.2-.406.012.422-13.994.374,10.228,7.741Z" transform="translate(-147.113 -253.473)" fill="#4d794d" stroke="#529b4c" stroke-width="1"/></g><g transform="translate(4.457 59.866)"><path d="M146.9,299.339l-11.085-6,12.476-2.834.093.412L137,293.5l10.1,5.466Z" transform="translate(-135.813 -290.505)" fill="#4d794d" stroke="#529b4c" stroke-width="1"/></g><g transform="translate(0 83.202)"><path d="M136.319,339.153l-7.972-3.891,11.624-5.669.185.379-10.846,5.29,7.2,3.512Z" transform="translate(-128.347 -329.593)" fill="#4d794d" stroke="#529b4c" stroke-width="1"/></g><g transform="translate(0.117 106.147)"><path d="M141.415,378.865l-12.873-3.7,12.7-7.141.207.368-11.818,6.646,11.9,3.419Z" transform="translate(-128.542 -368.027)" fill="#4d794d" stroke="#529b4c" stroke-width="1"/></g><g transform="translate(4.376 126.044)"><path d="M147.564,413.872l-11.886-1.5,9.6-11.022.318.277-9.08,10.425,11.1,1.4Z" transform="translate(-135.677 -401.355)" fill="#4d794d" stroke="#529b4c" stroke-width="1"/></g><g transform="translate(13.429 148.942)"><path d="M150.84,449.922l6.227-10.212.36.22-5.709,9.363,13.568-3.033.092.412Z" transform="translate(-150.84 -439.71)" fill="#4d794d" stroke="#529b4c" stroke-width="1"/></g><g transform="translate(26.995 164.323)"><path d="M173.564,477.682l3.8-12.208.4.125-3.512,11.3,10.292-4.8.179.382Z" transform="translate(-173.564 -465.474)" fill="#4d794d" stroke="#529b4c" stroke-width="1"/></g><g transform="translate(48.812 178.913)"><path d="M211.5,499.276l-1.389-9.3.417-.063,1.276,8.544,1.87-1.611.275.32Z" transform="translate(-210.109 -489.912)" fill="#4d794d" stroke="#529b4c" stroke-width="1"/></g></g><g transform="translate(132.303 161.951)"><g transform="translate(0.188 0)"><path d="M192.249,378.665l-.422-.017.587-14.374-12.272-6.259,3.381-15.168L172.855,334.8l5.831-14.052L169.2,310.385l8.336-13.192-7.758-13.585,7.99-12.56-5.145-12.873,10.979-8.639-2.168-13.328,11.19-5.826.464-14.228.422.014-.473,14.475-11.138,5.8,2.159,13.273-10.927,8.6,5.107,12.781-7.969,12.528,7.758,13.584-8.3,13.133,9.452,10.326-5.809,14,10.623,8.011-.029.132-3.339,14.981,12.222,6.234Z" transform="translate(-169.198 -216.153)" fill="#4d794d" stroke="#529b4c" stroke-width="1"/></g><g transform="translate(3.267 39.535)"><path d="M186.058,291.795l-11.7-6.975,14.211-2.444.072.416-13.085,2.25,10.722,6.39Z" transform="translate(-174.355 -282.376)" fill="#4d794d" stroke="#529b4c" stroke-width="1"/></g><g transform="translate(0.444 62.952)"><path d="M180.88,330.628l-11.254-4.519,11.3-4.508.157.392-10.323,4.118,10.275,4.127Z" transform="translate(-169.626 -321.6)" fill="#4d794d" stroke="#529b4c" stroke-width="1"/></g><g transform="translate(0 87.042)"><path d="M176.915,372.007l-8.032-2.826,10.095-7.231.246.343-9.435,6.759,7.267,2.557Z" transform="translate(-168.883 -361.951)" fill="#4d794d" stroke="#529b4c" stroke-width="1"/></g><g transform="translate(3.602 109.867)"><path d="M187.525,411.009l-12.608-1.978,10.891-8.847.266.327-10.156,8.25,11.672,1.831Z" transform="translate(-174.917 -400.184)" fill="#4d794d" stroke="#529b4c" stroke-width="1"/></g><g transform="translate(10.998 129.645)"><path d="M187.3,445.629l7.43-12.317.361.218L188.055,445.2l10.621-.089,0,.422Z" transform="translate(-187.305 -433.312)" fill="#4d794d" stroke="#529b4c" stroke-width="1"/></g><g transform="translate(22.652 151.82)"><path d="M206.826,481.514l4.383-11.058.392.156-4.024,10.152,12.292-4.852.155.392Z" transform="translate(-206.826 -470.457)" fill="#4d794d" stroke="#529b4c" stroke-width="1"/></g></g><g transform="translate(194.117 160.287)"><g transform="translate(0 0)"><path d="M272.425,375.977l0-.422,14.475-.075,1.93-13.844.131-.038,11.349-3.354-2.771-14.063,11.827-7.8L303.6,322.062l9.893-9.32L305.34,299.86l8.327-11.421L303.049,276.75l6.073-14.373-10.184-11.142.028-.111,3.4-13.105-12.684-6.885.274-13.287-12.371-4.078.132-.4,12.668,4.176-.276,13.342,12.748,6.919L299.4,251.118l10.212,11.173-.052.125-6.021,14.249,10.668,11.743-8.36,11.468,8.18,12.934-9.936,9.361,5.789,14.367-11.878,7.839L300.8,358.54l-11.588,3.424L287.265,375.9Z" transform="translate(-272.423 -213.367)" fill="#4d794d" stroke="#529b4c" stroke-width="1"/></g><g transform="translate(15.586 23.943)"><path d="M302.55,262.346l-.255-.336,10.228-7.741-13.993-.374.012-.422,15.2.406Z" transform="translate(-298.53 -253.473)" fill="#4d794d" stroke="#529b4c" stroke-width="1"/></g><g transform="translate(24.971 46.052)"><path d="M315.734,299.339l-.2-.371,10.1-5.466-11.381-2.585.093-.412,12.476,2.834Z" transform="translate(-314.25 -290.505)" fill="#4d794d" stroke="#529b4c" stroke-width="1"/></g><g transform="translate(30.188 69.388)"><path d="M326.825,339.153l-.185-.379,7.2-3.512-10.846-5.29.185-.379,11.624,5.669Z" transform="translate(-322.989 -329.593)" fill="#4d794d" stroke="#529b4c" stroke-width="1"/></g><g transform="translate(28.892 92.333)"><path d="M320.933,378.865l-.116-.405,11.9-3.419L320.9,368.395l.207-.368,12.7,7.141Z" transform="translate(-320.817 -368.027)" fill="#4d794d" stroke="#529b4c" stroke-width="1"/></g><g transform="translate(25.682 112.23)"><path d="M315.493,413.872l-.053-.419,11.1-1.4-9.08-10.425.318-.277,9.6,11.022Z" transform="translate(-315.44 -401.355)" fill="#4d794d" stroke="#529b4c" stroke-width="1"/></g><g transform="translate(14.03 135.128)"><path d="M310.462,449.922l-14.538-3.25.092-.412,13.568,3.033-5.709-9.363.36-.22Z" transform="translate(-295.924 -439.71)" fill="#4d794d" stroke="#529b4c" stroke-width="1"/></g><g transform="translate(3.845 150.509)"><path d="M290.02,477.682l-11.156-5.208.179-.382,10.291,4.8-3.512-11.3.4-.125Z" transform="translate(-278.864 -465.474)" fill="#4d794d" stroke="#529b4c" stroke-width="1"/></g></g><g transform="translate(170.333 152.808)"><g transform="translate(0 0)"><path d="M236.253,363.5l-.025-.421,14.449-.862,1.174-13.929,11.279-4.011L259.6,330.383l11.385-8.436-6.538-13.98,9.371-9.844L264.981,285.7l7.693-11.857-11.238-11.094,5.283-14.682L255.944,237.5l2.7-13.383-13.04-6.185-.448-13.282-12.575-3.4.11-.407,12.876,3.481.45,13.337,13.106,6.216L256.4,237.355l10.8,10.6-5.283,14.683,11.29,11.146-.094.144-7.63,11.761,8.872,12.471-9.413,9.887,6.562,14.031-11.435,8.473,3.556,13.99-11.385,4.049-1.182,14.022Z" transform="translate(-232.584 -200.839)" fill="#4d794d" stroke="#529b4c" stroke-width="1"/></g><g transform="translate(11.702 22.927)"><path d="M256.671,248.305l-.273-.322,9.792-8.286-13.993.388-.012-.422,15.2-.421Z" transform="translate(-252.185 -239.242)" fill="#4d794d" stroke="#529b4c" stroke-width="1"/></g><g transform="translate(22.286 44.909)"><path d="M271.853,284.808l-.221-.36,9.786-6.007-11.505-1.963.071-.416,12.611,2.151Z" transform="translate(-269.914 -276.063)" fill="#4d794d" stroke="#529b4c" stroke-width="1"/></g><g transform="translate(28.763 67.921)"><path d="M285.092,323.956l-.205-.368,6.994-3.9L280.762,315l.164-.389,11.915,5.029Z" transform="translate(-280.762 -314.609)" fill="#4d794d" stroke="#529b4c" stroke-width="1"/></g><g transform="translate(28.799 90.897)"><path d="M281.424,363.926l-.138-.4,11.7-4.061-12.162-5.994.186-.379,13.067,6.44Z" transform="translate(-280.823 -353.094)" fill="#4d794d" stroke="#529b4c" stroke-width="1"/></g><g transform="translate(27.23 110.827)"><path d="M278.269,399.1l-.075-.415,11.008-2-9.633-9.916.3-.294,10.185,10.484Z" transform="translate(-278.194 -386.478)" fill="#4d794d" stroke="#529b4c" stroke-width="1"/></g><g transform="translate(16.561 134.001)"><path d="M275.017,435.154,260.324,432.7l.069-.416,13.713,2.291-6.21-9.039.348-.239Z" transform="translate(-260.324 -425.295)" fill="#4d794d" stroke="#529b4c" stroke-width="1"/></g><g transform="translate(7.229 149.965)"><path d="M256.116,464.018l-11.423-4.593.157-.392,10.538,4.237-4.122-11.089.4-.147Z" transform="translate(-244.693 -452.035)" fill="#4d794d" stroke="#529b4c" stroke-width="1"/></g></g><g transform="translate(160.882 178.641)"><g transform="translate(8.855)"><path d="M231.984,273.847l-.4-.137,5.244-15.287-4.64-14.183.4-.131,4.683,14.317-.023.067Z" transform="translate(-231.586 -244.109)" fill="#4d794d" stroke="#529b4c" stroke-width="1"/></g><g transform="translate(8.847 41.992)"><path d="M231.987,333.675l-.416-.068,1.7-10.383-.823-8.737.42-.04.827,8.791,0,.027Z" transform="translate(-231.571 -314.448)" fill="#4d794d" stroke="#529b4c" stroke-width="1"/></g><g transform="translate(6.365 70.386)"><path d="M227.8,382.147l-.384-.174,5.091-11.244-3.991-8.542.382-.178,4.073,8.718-.04.088Z" transform="translate(-227.414 -362.009)" fill="#4d794d" stroke="#529b4c" stroke-width="1"/></g><g transform="translate(1.912 13.926)"><path d="M235.142,269.588l-2.833-1.553-12.354-.178.006-.422,12.46.179,2.925,1.6Z" transform="translate(-219.955 -267.435)" fill="#4d794d" stroke="#529b4c" stroke-width="1"/></g><g transform="translate(0 50.561)"><path d="M234.419,333.181l-6.957-3.95-10.677.818-.032-.421,10.806-.828,7.069,4.014Z" transform="translate(-216.753 -328.8)" fill="#4d794d" stroke="#529b4c" stroke-width="1"/></g><g transform="translate(0.885 78.87)"><path d="M236.207,383.757l-7.229-7.067-10.629,2.965-.114-.406,10.864-3.031,7.4,7.238Z" transform="translate(-218.235 -376.218)" fill="#4d794d" stroke="#529b4c" stroke-width="1"/></g><g transform="translate(2.615 106.712)"><path d="M221.28,427.625l-.147-.4,11.773-4.375,1.4,4.49-.4.125-1.263-4.064Z" transform="translate(-221.133 -422.855)" fill="#4d794d" stroke="#529b4c" stroke-width="1"/></g><g transform="translate(7.481 96.955)"><path d="M234.474,450.067h-.422v-5.884l-3.415-13,.021-.061,5.163-14.554-6.538-9.828.351-.234,6.655,10-.035.1-5.177,14.592,3.4,12.95Z" transform="translate(-229.284 -406.511)" fill="#4d794d" stroke="#529b4c" stroke-width="1"/></g></g><g transform="translate(161.178 133.865)"><rect width="12.64" height="0.422" transform="translate(0 11.31) rotate(-63.485)" fill="#4d794d" stroke="#529b4c" stroke-width="1"/></g><g transform="translate(143.121 139.13)"><rect width="0.422" height="13.882" transform="translate(0 0.001) rotate(-0.185)" fill="#4d794d" stroke="#529b4c" stroke-width="1"/></g><g transform="translate(121.687 151.721)"><path d="M152.885,211.619l-1.785-12.6,10.873,4.94-.175.384-10.173-4.622,1.677,11.839Z" transform="translate(-151.1 -199.018)" fill="#4d794d" stroke="#529b4c" stroke-width="1"/></g><g transform="translate(106.497 167.616)"><rect width="0.422" height="13.529" transform="translate(0 0.417) rotate(-81.664)" fill="#4d794d" stroke="#529b4c" stroke-width="1"/></g><g transform="translate(94.435 187.71)"><rect width="0.422" height="13.807" transform="translate(0 0.22) rotate(-31.46)" fill="#4d794d" stroke="#529b4c" stroke-width="1"/></g><g transform="translate(83.379 208.704)"><rect width="0.422" height="13.939" transform="matrix(0.011, -1, 1, 0.011, 0, 0.422)" fill="#4d794d" stroke="#529b4c" stroke-width="1"/></g><g transform="translate(78.114 225.602)"><path d="M92,337.186l-13.884-6.534,15.591-7.882.19.377-14.82,7.491,13.1,6.166Z" transform="translate(-78.114 -322.77)" fill="#4d794d" stroke="#529b4c" stroke-width="1"/></g><g transform="translate(78.554 248.895)"><path d="M93.546,378.929l-14.694-7.458,13.767-9.684.243.345-13.193,9.28,14.069,7.139Z" transform="translate(-78.852 -361.788)" fill="#4d794d" stroke="#529b4c" stroke-width="1"/></g><g transform="translate(81.39 274.547)"><path d="M98.508,417.042,83.6,416.463l14.33-11.708.267.326-13.467,11,13.793.535Z" transform="translate(-83.602 -404.755)" fill="#4d794d" stroke="#529b4c" stroke-width="1"/></g><g transform="translate(93.178 295.415)"><path d="M118.745,454.271l-15.4-.555,8.63-14.007.359.222-8.25,13.39,14.675.529Z" transform="translate(-103.346 -439.709)" fill="#4d794d" stroke="#529b4c" stroke-width="1"/></g><g transform="translate(108.085 306.269)"><rect width="20.323" height="0.422" transform="translate(0 19.358) rotate(-72.272)" fill="#4d794d" stroke="#529b4c" stroke-width="1"/></g><g transform="translate(126.83 322.611)"><path d="M159.761,501.651l-.045-16.387h.422l.043,15.426,9.646-8.906.286.31Z" transform="translate(-159.716 -485.264)" fill="#4d794d" stroke="#529b4c" stroke-width="1"/></g><g transform="translate(147.511 331.408)"><rect width="18.096" height="0.422" transform="translate(0 16.955) rotate(-69.549)" fill="#4d794d" stroke="#529b4c" stroke-width="1"/></g><g transform="translate(165.397 338.434)"><path d="M231.035,525.223l-6.72-13.013.375-.194,6.31,12.22,5.365-12.469.387.167Z" transform="translate(-224.316 -511.768)" fill="#4d794d" stroke="#529b4c" stroke-width="1"/></g><g transform="translate(184.643 336.564)"><rect width="0.422" height="16.124" transform="translate(0 0.26) rotate(-37.928)" fill="#4d794d" stroke="#529b4c" stroke-width="1"/></g><g transform="translate(199.608 327.962)"><path d="M300.593,506.8,281.621,495l.223-.358,18.315,11.391-.186-11.8.422-.007Z" transform="translate(-281.621 -494.227)" fill="#4d794d" stroke="#529b4c" stroke-width="1"/></g><g transform="translate(218.324 307.426)"><path d="M332.665,477.512l-19.694-8.18.162-.39,18.732,7.78L324.646,460l.387-.167Z" transform="translate(-312.971 -459.828)" fill="#4d794d" stroke="#529b4c" stroke-width="1"/></g><g transform="translate(232.406 298.221)"><rect width="0.422" height="17.314" transform="matrix(0.355, -0.935, 0.935, 0.355, 0, 0.395)" fill="#4d794d" stroke="#529b4c" stroke-width="1"/></g><g transform="translate(237.882 270.621)"><path d="M345.875,414.685l-.144-.4,18.811-6.833-11.529-8.943.259-.334,12.134,9.412Z" transform="translate(-345.731 -398.179)" fill="#4d794d" stroke="#529b4c" stroke-width="1"/></g><g transform="translate(245.959 246.05)"><path d="M359.894,373.21l-.192-.376,12.846-6.556-13.288-8.906.235-.351,13.885,9.306Z" transform="translate(-359.26 -357.021)" fill="#4d794d" stroke="#529b4c" stroke-width="1"/></g><g transform="translate(244.28 227.534)"><rect width="0.422" height="14.887" transform="translate(0 0.392) rotate(-68.433)" fill="#4d794d" stroke="#529b4c" stroke-width="1"/></g><g transform="translate(242.743 208.815)"><path d="M359.228,307.117l-.3-.294,8.7-8.975-13.748-2.782.084-.414,14.5,2.935Z" transform="translate(-353.873 -294.652)" fill="#4d794d" stroke="#529b4c" stroke-width="1"/></g><g transform="translate(233.413 190.719)"><rect width="0.422" height="16.679" transform="translate(0 0.422) rotate(-87.019)" fill="#4d794d" stroke="#529b4c" stroke-width="1"/></g><g transform="translate(224.237 171.125)"><path d="M331.062,245.362l-.36-.22,7.929-12.992-15.663,3.529-.093-.412,16.636-3.747Z" transform="translate(-322.875 -231.52)" fill="#4d794d" stroke="#529b4c" stroke-width="1"/></g><g transform="translate(214.826 155.254)"><path d="M316.443,216.035l-.38-.183,4.949-10.3-13.8,3.307-.1-.41,14.665-3.513Z" transform="translate(-307.112 -204.936)" fill="#4d794d" stroke="#529b4c" stroke-width="1"/></g><g transform="translate(197.396 142.531)"><path d="M291.225,194.8l-.419-.054,1.35-10.49-14.094,5.2-.146-.4,14.748-5.442Z" transform="translate(-277.916 -183.624)" fill="#4d794d" stroke="#529b4c" stroke-width="1"/></g><g transform="translate(180.745 134.774)"><path d="M261.156,186.557l-3.184-14.916-7.608,10.411-.34-.249,8.164-11.173,3.381,15.838Z" transform="translate(-250.024 -170.63)" fill="#4d794d" stroke="#529b4c" stroke-width="1"/></g></g><g transform="matrix(0.438, 0.899, -0.899, 0.438, 188.029, -551.847)"><g transform="translate(894.713 145.926)"><path d="M952.674,185.72,950.2,160.935l-20.411,7.917" transform="translate(-929.785 -160.746)" fill="#b7d544" stroke="#5ca556" stroke-width="1"/><g transform="translate(4.768 0)"><path d="M946.774,182.852a.189.189,0,0,1-.339-.157l6.354-21.406L937.782,171.9a.189.189,0,0,1-.218-.309l15.454-10.929a.189.189,0,0,1,.29.208L946.8,182.8A.174.174,0,0,1,946.774,182.852Z" transform="translate(-937.483 -160.63)" fill="#6ab946" stroke="#5ca556" stroke-width="1"/></g></g><g transform="translate(912.04 165.508)"><path d="M972.313,216.676l7.333-23.8-21.883-.623" transform="translate(-957.762 -192.248)" fill="#b7d544" stroke="#5ca556" stroke-width="1"/><g transform="translate(3.211 0.434)"><path d="M981.777,193.241l-.012.017-14.509,17.686a.189.189,0,0,1-.292-.24l14.163-17.263L963.176,197.4a.189.189,0,1,1-.082-.369l18.484-4.077a.189.189,0,0,1,.2.288Z" transform="translate(-962.946 -192.949)" fill="#6ab946" stroke="#5ca556" stroke-width="1"/></g></g><g transform="translate(928.811 183.092)"><path d="M991.629,248.251l13.961-20.629-20.749-6.982" transform="translate(-984.841 -220.64)" fill="#b7d544" stroke="#5ca556" stroke-width="1"/><g transform="translate(1.521 5.299)"><path d="M1006.684,230.982a.185.185,0,0,1-.053.054l-19.039,12.682a.189.189,0,0,1-.21-.315l18.585-12.379-18.326-1.452a.189.189,0,0,1,.03-.377l18.869,1.5a.189.189,0,0,1,.143.292Z" transform="translate(-987.298 -229.195)" fill="#6ab946" stroke="#5ca556" stroke-width="1"/></g></g><g transform="translate(933.705 209.662)"><path d="M999.531,291.152l13.961-20.629-20.749-6.982" transform="translate(-992.743 -263.541)" fill="#b7d544" stroke="#5ca556" stroke-width="1"/><g transform="translate(1.521 5.299)"><path d="M1014.585,273.883a.185.185,0,0,1-.053.054l-19.039,12.682a.189.189,0,0,1-.21-.315l18.584-12.379-18.325-1.452a.189.189,0,0,1,.03-.377l18.869,1.5a.189.189,0,0,1,.143.292Z" transform="translate(-995.199 -272.096)" fill="#6ab946" stroke="#5ca556" stroke-width="1"/></g></g><g transform="translate(933.945 231.417)"><path d="M995.856,326.7l21.013-13.375-16.261-14.658" transform="translate(-994.168 -298.668)" fill="#b7d544" stroke="#5ca556" stroke-width="1"/><g transform="translate(0 5.594)"><path d="M1015.99,316.868a.189.189,0,0,1-.125.082l-22.512,4.064a.189.189,0,0,1-.068-.372l21.975-3.967-16.236-8.62a.189.189,0,0,1-.079-.256.191.191,0,0,1,.256-.078l16.718,8.876a.189.189,0,0,1,.1.2A.193.193,0,0,1,1015.99,316.868Z" transform="translate(-993.131 -307.7)" fill="#6ab946" stroke="#5ca556" stroke-width="1"/></g></g><g transform="translate(930.205 258.79)"><path d="M989.818,370.9l21.013-13.375-16.261-14.658" transform="translate(-988.13 -342.865)" fill="#b7d544" stroke="#5ca556" stroke-width="1"/><g transform="translate(0 5.593)"><path d="M1009.953,361.064a.191.191,0,0,1-.125.083l-22.512,4.064a.189.189,0,1,1-.068-.372l21.975-3.967-16.237-8.62a.189.189,0,0,1,.178-.334l16.718,8.876a.19.19,0,0,1,.1.2A.193.193,0,0,1,1009.953,361.064Z" transform="translate(-987.093 -351.896)" fill="#6ab946" stroke="#5ca556" stroke-width="1"/></g></g><g transform="translate(915.311 285.673)"><path d="M963.044,411.58l24.061-6.441L976,386.271" transform="translate(-963.044 -386.271)" fill="#b7d544" stroke="#5ca556" stroke-width="1"/><g transform="translate(1.179 5.189)"><path d="M987.989,408.432a.188.188,0,0,1-.182.084l-22.693-2.889a.189.189,0,1,1,.048-.375l22.151,2.82-12.895-13.1a.189.189,0,0,1,.27-.265L987.965,408.2a.189.189,0,0,1,.035.217A.119.119,0,0,1,987.989,408.432Z" transform="translate(-964.949 -394.65)" fill="#6ab946" stroke="#5ca556" stroke-width="1"/></g></g><g transform="translate(902.026 308.243)"><path d="M941.593,444.583l24.887-1.034-6.718-20.836" transform="translate(-941.593 -422.712)" fill="#b7d544" stroke="#5ca556" stroke-width="1"/><g transform="translate(3.183 4.585)"><path d="M968.595,446.47l-.011.015a.189.189,0,0,1-.211.059l-21.515-7.773a.189.189,0,0,1,.128-.356l21,7.587-9.724-15.6a.189.189,0,1,1,.321-.2L968.6,446.267A.188.188,0,0,1,968.595,446.47Z" transform="translate(-946.732 -430.115)" fill="#6ab946" stroke="#5ca556" stroke-width="1"/></g></g><g transform="translate(887.265 326.904)"><path d="M917.761,474.715l24.887-1.034-6.718-20.836" transform="translate(-917.761 -452.844)" fill="#b7d544" stroke="#5ca556" stroke-width="1"/><g transform="translate(3.184 4.585)"><path d="M944.763,476.6l-.011.016a.19.19,0,0,1-.211.059L923.025,468.9a.189.189,0,0,1,.128-.355l21,7.587-9.725-15.6a.189.189,0,0,1,.321-.2L944.765,476.4A.189.189,0,0,1,944.763,476.6Z" transform="translate(-922.901 -460.247)" fill="#6ab946" stroke="#5ca556" stroke-width="1"/></g></g><g transform="translate(871.914 349.94)"><path d="M892.974,502.365l23.061,9.416,2.562-21.742" transform="translate(-892.974 -490.038)" fill="#b7d544" stroke="#5ca556" stroke-width="1"/><g transform="translate(6.542 2.78)"><path d="M920.214,513.593a.194.194,0,0,1-.074.066.189.189,0,0,1-.217-.034L903.594,497.6a.189.189,0,0,1,.265-.27L919.8,512.972l-2.351-18.231a.189.189,0,1,1,.375-.048l2.421,18.773A.188.188,0,0,1,920.214,513.593Z" transform="translate(-903.537 -494.527)" fill="#6ab946" stroke="#5ca556" stroke-width="1"/></g></g><g transform="translate(844.942 364.808)"><path d="M849.424,518.832l18.858,16.273,9.356-19.792" transform="translate(-849.424 -514.527)" fill="#b7d544" stroke="#5ca556" stroke-width="1"/><g transform="translate(8.296 0)"><path d="M873.539,534.726a.189.189,0,0,1-.326-.018l-10.373-20.389a.189.189,0,0,1,.338-.172l10.126,19.9,3.58-18.03a.189.189,0,0,1,.371.074l-3.686,18.565A.179.179,0,0,1,873.539,534.726Z" transform="translate(-862.819 -514.044)" fill="#6ab946" stroke="#5ca556" stroke-width="1"/></g></g><path d="M861.029,151.4l13.783-6.775L884.14,155.4l15.438-3.938,7.594,14.319,16.573,1.48,1.23,16L939,187.75l-4.882,15.516,14.068,9.782L939.77,228.6l10.824,11.168-11.279,13.675,10.3,13.753L936.7,279.8l6.255,16.368-13.2,11.248,4.081,16.117L919.4,332.652l2.029,14.335-15.171,3.529-2.3,16.038-15.777.211-7.166,17.6-18.882-4.814-14.232,14.6-10.25,4.158s1.1-13.921,1.053-14.513c-2.965-38.08,55.066-137.006,42.7-173.051Z" transform="translate(0 -8.61)" fill="#9fd85e" stroke="#5ca556" stroke-width="1"/><g transform="translate(861.61 142.847)"><path d="M972.709,388.373l8.534,11.765,13.127-11.185Z" transform="translate(-913.022 -244.245)" fill="#86be46" stroke="#5ca556" stroke-width="1"/><path d="M947.552,438.164l-4.881,8.33,3.545,15.881.017-.117,15.171-3.529Z" transform="translate(-901.588 -263.199)" fill="#86be46" stroke="#5ca556" stroke-width="1"/><path d="M950.66,429.942s5.839,4.337,11.849,8.863l14.348-9.063-23.094-6.1Z" transform="translate(-904.629 -257.669)" fill="#86be46" stroke="#5ca556" stroke-width="1"/><path d="M918.945,494.957l15.777-.211-16.253-13.364.409,13.739Z" transform="translate(-892.375 -279.65)" fill="#86be46" stroke="#5ca556" stroke-width="1"/><path d="M895.74,521.372l-19.4-16.838,1,12.146Z" transform="translate(-876.336 -288.464)" fill="#86be46" stroke="#5ca556" stroke-width="1"/><path d="M939.461,172.87l7.323,5.352,15.024-6.764-16.573-1.48-7.594-14.319Z" transform="translate(-899.672 -155.659)" fill="#86be46" stroke="#5ca556" stroke-width="1"/><path d="M998.8,270.6l8.378-15.489-14.549,15.125Z" transform="translate(-920.604 -193.516)" fill="#86be46" stroke="#5ca556" stroke-width="1"/><path d="M971.122,207.745l4.956,9.8,13.726-15.88-14.022-4.489-1.23-16,1.925,29.252Z" transform="translate(-912.418 -165.37)" fill="#86be46" stroke="#5ca556" stroke-width="1"/><path d="M999.1,312.206l-.214-.286,11.279-13.675-16.029,12.027Z" transform="translate(-921.177 -209.937)" fill="#86be46" stroke="#5ca556" stroke-width="1"/><path d="M988.985,345.828l5.357,9.275,12.884-12.571Z" transform="translate(-919.218 -226.795)" fill="#86be46" stroke="#5ca556" stroke-width="1"/></g><g transform="translate(865.597 360.377)"><path d="M898.349,522.372a.166.166,0,0,1-.029.035.188.188,0,0,1-.22.028l-15.228-8.362a.189.189,0,0,1-.074-.256.183.183,0,0,1,.256-.075l14.724,8.085-6.794-14.668a.189.189,0,0,1,.343-.159l7.036,15.19A.188.188,0,0,1,898.349,522.372Z" transform="translate(-882.774 -506.89)" fill="#6ab946" stroke="#5ca556" stroke-width="1"/></g><g transform="translate(887.832 340.935)"><path d="M934.959,492.61a.147.147,0,0,1-.023.029.187.187,0,0,1-.214.04l-15.936-7.284a.189.189,0,1,1,.157-.344l15.455,7.064-8-16.344a.189.189,0,0,1,.34-.166l8.233,16.819A.189.189,0,0,1,934.959,492.61Z" transform="translate(-918.675 -475.499)" fill="#6ab946" stroke="#5ca556" stroke-width="1"/></g><g transform="translate(903.889 324.139)"><path d="M962.3,462.72l-.008.012a.19.19,0,0,1-.206.065l-17.348-5.431a.189.189,0,1,1,.113-.36l16.855,5.276-8.619-13.612a.189.189,0,1,1,.319-.2l8.9,14.048A.189.189,0,0,1,962.3,462.72Z" transform="translate(-944.602 -448.38)" fill="#6ab946" stroke="#5ca556" stroke-width="1"/></g><g transform="translate(916.886 303.896)"><path d="M982.7,426.821a.189.189,0,0,1-.147.085l-16.764.972a.189.189,0,0,1-.022-.378l16.344-.948L971.6,416.018a.189.189,0,1,1,.268-.267l10.809,10.834a.189.189,0,0,1,.043.2A.2.2,0,0,1,982.7,426.821Z" transform="translate(-965.587 -415.695)" fill="#6ab946" stroke="#5ca556" stroke-width="1"/></g><g transform="translate(927.043 280.49)"><path d="M998.06,385.07a.19.19,0,0,1-.1.076l-15.726,5.273a.189.189,0,0,1-.121-.359l15.291-5.127-13.5-6.673a.189.189,0,0,1,.168-.339l13.915,6.876a.189.189,0,0,1,.074.273Z" transform="translate(-981.987 -377.901)" fill="#6ab946" stroke="#5ca556" stroke-width="1"/></g><g transform="translate(930.996 249.029)"><path d="M1007.151,336.762a.191.191,0,0,1-.071.064l-17.841,9.331a.189.189,0,1,1-.175-.336l17.516-9.161-18.108-9.2a.189.189,0,1,1,.172-.338l18.434,9.366a.19.19,0,0,1,.073.272Z" transform="translate(-988.369 -327.104)" fill="#6ab946" stroke="#5ca556" stroke-width="1"/></g><g transform="translate(932.87 224.902)"><path d="M1009.278,294.506a.2.2,0,0,1-.042.045L992.591,307.52a.189.189,0,0,1-.232-.3l16.37-12.755-17.205-5.951a.189.189,0,1,1,.123-.357l17.535,6.065a.189.189,0,0,1,.125.148A.192.192,0,0,1,1009.278,294.506Z" transform="translate(-991.396 -288.148)" fill="#6ab946" stroke="#5ca556" stroke-width="1"/></g><g transform="translate(931.242 200.624)"><path d="M1005.864,252.866a.168.168,0,0,1-.034.039l-14.689,12.743a.189.189,0,1,1-.247-.285l14.4-12.5-16.381-3.546a.189.189,0,0,1,.08-.37l16.75,3.626a.189.189,0,0,1,.118.289Z" transform="translate(-988.767 -248.947)" fill="#6ab946" stroke="#5ca556" stroke-width="1"/></g><g transform="translate(906.935 158.457)"><path d="M961.544,198.8a.189.189,0,0,1-.34-.154l4.848-17.306-16.284,5.3a.189.189,0,1,1-.117-.36l16.62-5.4a.189.189,0,0,1,.24.231l-4.943,17.645A.2.2,0,0,1,961.544,198.8Z" transform="translate(-949.52 -180.863)" fill="#6ab946" stroke="#5ca556" stroke-width="1"/></g><g transform="translate(921.741 178.913)"><path d="M990.91,214.184l-.006.009-10.715,14.5a.19.19,0,0,1-.265.04.187.187,0,0,1-.04-.264l10.424-14.106-16.657,3.33a.189.189,0,0,1-.074-.371l17.138-3.426a.189.189,0,0,1,.2.289Z" transform="translate(-973.426 -213.892)" fill="#6ab946" stroke="#5ca556" stroke-width="1"/></g><g transform="translate(889.759 142.658)"><path d="M933.326,169.187a.189.189,0,0,1-.346-.082l-1.522-13.191-9.361,7.916a.189.189,0,1,1-.244-.289l9.63-8.144a.189.189,0,0,1,.31.123l1.563,13.541A.189.189,0,0,1,933.326,169.187Z" transform="translate(-921.786 -155.354)" fill="#6ab946" stroke="#5ca556" stroke-width="1"/></g><path d="M862.132,519.411l.24.061c.08-2.812-.181-7.24-.573-7.444l-9.182,4.155-5.9,12.238-9.067,9.751,10.249-4.158Z" transform="translate(0 -148.469)" fill="#86be46" stroke="#5ca556" stroke-width="1"/><path d="M885.528,123.28c-2.289,2.526-1.169,8.905-6.791,11.824a37.022,37.022,0,0,1-5.845,1.593,5.26,5.26,0,0,0-1.257,6.6c2.413,4.362,6.836,13.924,14.135,34.68a5.256,5.256,0,0,0,8.514,2.149,12.723,12.723,0,0,0,3.988-10.869c-.4-4.666-.493-13.553-1.237-22.528l-.208.053-6.219-15.778C889.3,127.678,889.686,118.692,885.528,123.28Z" transform="translate(-12.687 0)" fill="#9c823b" stroke="#5ca556" stroke-width="1"/><path d="M897.511,127.79a12.043,12.043,0,0,0,.542,4.872c.478,2.119,1.859,4.153,1.33,6.517s4.052,7.449,4.541,10.762c.183,1.245,1.148,1.5,2.358.983-.089-1.384-.189-2.787-.305-4.192l-.208.053-6.219-15.778c-1.312-3.329-.923-12.315-5.08-7.727C894.471,123.28,897.659,125.233,897.511,127.79Z" transform="translate(-21.63 0)" fill="#8d7633" stroke="#5ca556" stroke-width="1"/><path d="M878.737,135.89a37.022,37.022,0,0,1-5.845,1.593,5.26,5.26,0,0,0-1.257,6.6c2.4,4.342,6.8,13.842,14.037,34.4,11.614.759,6.362-15.856,6.969-23.229.655-7.965-13.688-10.795-8.825-16.653s1.712-14.541,1.712-14.541a3.156,3.156,0,0,1-.239.3C883.314,127.061,884.151,133.079,878.737,135.89Z" transform="translate(-12.687 -0.786)" fill="#d3cd9c" stroke="#5ca556" stroke-width="1"/><path d="M884,140.864a3.806,3.806,0,0,1,1-2.257c4.863-5.858,1.712-14.541,1.712-14.541a3.157,3.157,0,0,1-.239.3c-1.975,2.7-1.138,8.715-6.552,11.526a37.022,37.022,0,0,1-5.845,1.593S879.111,145.776,884,140.864Z" transform="translate(-13.863 -0.786)" fill="#c1bc90" stroke="#5ca556" stroke-width="1"/><path d="M885.16,161.826C900.6,157.888,948,191.006,938.9,273.6c-6.465,58.667-40.628,97.565-91.161,121.389a4.722,4.722,0,0,1-6.72-4.081c-.741-17.658-2.026-66.212,3.363-114.947C849.806,239.756,865.273,166.9,885.16,161.826Z" transform="translate(-1.019 -15.041)" fill="#e8e395" stroke="#5ca556" stroke-width="1"/><path d="M889.713,161.826c-2.646.675-5.214,2.56-7.69,5.39.338-.048,9.523-1.123-3.367,25.8-13.129,27.426,16.458,23.288,18.876,31.618s1.87,20.169,2.03,36.537-2.572,32.918-7.168,49.658-10.116,36.626-16.2,45.747l-15.581,23.34s3.753,8.331-8.319,15.072c50.533-23.825,84.7-62.722,91.161-121.389C952.553,191.006,905.151,157.888,889.713,161.826Z" transform="translate(-5.573 -15.041)" fill="#e8e395" stroke="#5ca556" stroke-width="1"/><path d="M882.488,180.35c-1.678,9.432-3.465,24.074-6.769,30.946s2.061,7.007,4.118,5.4-.878,1.008,5.347-3.959,16.536-17.877,16.288-19.621.552-3.359.633-7.433a45.03,45.03,0,0,1,.507-7.409c.219-.76,2.842-5.6,1.327-8.394a71.339,71.339,0,0,0-5.706-7.867C892.585,163.459,887.294,170.369,882.488,180.35Z" transform="translate(-14.091 -15.233)" fill="#d3cd9c" stroke="#5ca556" stroke-width="1"/><path d="M903.139,162.237c-.1.033-.194.065-.291.1s-.188.074-.282.113c-.072.029-.144.057-.215.088-.111.048-.221.1-.331.151-.053.025-.107.049-.16.075-.126.061-.251.126-.377.193l-.106.056c-.141.076-.281.157-.421.24l-.053.032a20.409,20.409,0,0,0-4.729,4.123c.338-.048,9.524-1.123-3.367,25.8-4.518,9.438-3.977,15.138-1.226,18.895,6.266-5.348,15.76-17.314,15.522-18.987-.248-1.743.552-3.359.633-7.433a45.015,45.015,0,0,1,.507-7.409c.219-.76,2.842-5.6,1.327-8.394a71.343,71.343,0,0,0-5.706-7.867c-.17.043-.341.092-.51.146C903.282,162.186,903.21,162.212,903.139,162.237Z" transform="translate(-19.723 -15.233)" fill="#c1bc90" stroke="#5ca556" stroke-width="1"/><path d="M888.022,177.146c14.229-3.629,57.92,26.9,49.531,103.028-6,54.438-37.871,90.408-84.965,112.327a3.665,3.665,0,0,1-5.21-3.157c-.672-15.326-2.023-61.073,3.055-106.993C855.435,248.976,869.692,181.823,888.022,177.146Z" transform="translate(-3.445 -20.882)" fill="#fff" stroke="#5ca556" stroke-width="1"/><path d="M895.263,177.146A12.074,12.074,0,0,0,890.5,179.8c-.461,3.816-2.281,9.773-6.729,19.065-13.129,27.426,16.458,23.288,18.876,31.618s1.87,20.169,2.03,36.537-2.572,32.918-7.168,49.658-10.116,36.626-16.2,45.747l-15.581,23.34a8.53,8.53,0,0,1,.536,3.61c43.554-22.154,72.815-57.276,78.536-109.2C953.183,204.042,909.492,173.517,895.263,177.146Z" transform="translate(-10.686 -20.882)" fill="#f6f6f6" stroke="#5ca556" stroke-width="1"/><path d="M888.916,181.834c13.854-3.535,56.4,26.187,48.227,100.316-5.84,53-36.875,88.028-82.728,109.37a3.568,3.568,0,0,1-5.072-3.074c-.654-14.923-1.97-59.465,2.975-104.177C857.188,251.773,871.068,186.387,888.916,181.834Z" transform="translate(-4.199 -22.669)" fill="#e4e1ca" stroke="#5ca556" stroke-width="1"/><path d="M889.4,186.123c9.643-2.46,37.566,13.905,39.833,46.108,7.229,6.533,10.788,37.322,4.912,51.552,1.451,12.535-1.142,29.07-14.957,46.694-2,17.218-47.328,62.667-64.446,58.732-9.422-2.166-3.347-23.2-1.3-57.081-2.961-20.758.355-41.691,4.285-51.636-3.041-8,5.081-40.185,10.874-49.047C869.094,206.02,880.255,188.454,889.4,186.123Z" transform="translate(-4.555 -24.317)" fill="#fcd74b" stroke="#5ca556" stroke-width="1"/><path d="M916.063,230.1s24.577,26.938-7.11,47.305c0,0,28.344,18.379-5.227,50.019,0,0,12.478,25.2-31.1,60.57,20.356-7.578,53.614-42.821,55.317-57.515,13.815-17.624,16.408-34.159,14.957-46.694,5.875-14.23,2.317-45.018-4.912-51.552-2.267-32.2-30.19-48.568-39.833-46.108a12.987,12.987,0,0,0-4.379,2.177h0S921.2,207.7,916.063,230.1Z" transform="translate(-13.314 -24.317)" fill="#fcb61b" stroke="#5ca556" stroke-width="1"/><g transform="translate(847.864 187.46)"><path d="M880.258,227.693a80.889,80.889,0,0,0-2.74,19.668,50.231,50.231,0,0,0-4.456,9.951s5.284-11.368,16.686-10.841C889.749,246.471,876.434,243.541,880.258,227.693Z" transform="translate(-861.345 -227.693)" fill="#fcb61b" stroke="#5ca556" stroke-width="1"/><path d="M854.142,404.132c.16,3.655.486,7.368,1.015,11.076q-.249,4.115-.566,7.972h0s3.349-7.868,10.978-7.1C865.569,416.082,854.276,412.094,854.142,404.132Z" transform="translate(-854.142 -294.857)" fill="#fcb61b" stroke="#5ca556" stroke-width="1"/><path d="M872.161,331.033s-12.474-7.555-11.231-14.483v0c-.888,6.014-1.069,11.107-.089,13.684a66.371,66.371,0,0,0-3.022,10.647C857.842,340.811,861.212,330.792,872.161,331.033Z" transform="translate(-855.542 -261.517)" fill="#fcb61b" stroke="#5ca556" stroke-width="1"/></g><path d="M862.92,475.173c-6.169,1.291-11.223,3.807-8.749-8.731s-4.068-32.477,12.1-38.775c0,0,5.574-2.078-.227,5.875s-4.99,12.7-6.32,20.264,2.664,24.029,11.119,15.7C870.84,469.508,870.946,473.492,862.92,475.173Z" transform="translate(-6.045 -116.262)" fill="#ffef9d" stroke="#5ca556" stroke-width="1"/><path d="M870.823,389.263s-15.772-4.438-14.7-25.651,18.669-23.259,18.669-23.259S844.887,362.595,870.823,389.263Z" transform="translate(-7.011 -83.118)" fill="#ffef9d" stroke="#5ca556" stroke-width="1"/><path d="M909.272,229.558s-29.568-7.584-5.967-36.429C903.306,193.129,867.258,225.358,909.272,229.558Z" transform="translate(-19.515 -27.075)" fill="#ffef9d" stroke="#5ca556" stroke-width="1"/><path d="M876.442,305.844a22.311,22.311,0,0,0,2.533,1.317s-22.123,9.308-20.18,27.068l4.316-9.828s14.015-16.363,31.181-17.113c0,0-19.555-2.53-23.059-14.529a33.522,33.522,0,0,1-.275-5.469c.364-11.959,15.08-25.831,15.08-25.831S840.949,285.5,876.442,305.844Z" transform="translate(-8.003 -53.086)" fill="#ffef9d" stroke="#5ca556" stroke-width="1"/><path d="M896.771,422.861s9.841-12.952,4.68-19.339a18.379,18.379,0,0,0-12.831-6.546s23.3-10.069,24.859-37.335c0,0,6.9,23.992-8.269,33.725C905.211,393.366,911.644,414.853,896.771,422.861Z" transform="translate(-19.402 -90.461)" fill="#ffef9d" stroke="#5ca556" stroke-width="1"/></g></g><path d="M22.5,41a.913.913,0,0,1-.63-.273.859.859,0,0,1-.294-.651V21.05a.8.8,0,0,1,.294-.63.952.952,0,0,1,.63-.252h2.1a.952.952,0,0,1,.63.252.8.8,0,0,1,.294.63V23.4a12.778,12.778,0,0,1,1.155-1.176,9.36,9.36,0,0,1,3.612-2.016,8.322,8.322,0,0,1,2.415-.336,5.975,5.975,0,0,1,4.767,2.037,8.44,8.44,0,0,1,1.7,5.1V40.076a.927.927,0,0,1-.252.651.822.822,0,0,1-.63.273H36.147a.913.913,0,0,1-.63-.273.859.859,0,0,1-.294-.651V27.014a4.113,4.113,0,0,0-.546-2.436,2.373,2.373,0,0,0-.63-.462,3.07,3.07,0,0,0-1.512-.294,7.366,7.366,0,0,0-2.856.525,6.621,6.621,0,0,0-2.163,1.428,6.514,6.514,0,0,0-1.407,2.1,7.744,7.744,0,0,0-.588,2.541v9.66a.927.927,0,0,1-.252.651.822.822,0,0,1-.63.273Zm16.338,2.184a.927.927,0,0,1,.651.252.822.822,0,0,1,.273.63V51a.932.932,0,0,1-.924.924H36.777a.843.843,0,0,1-.609-.273A.889.889,0,0,1,35.9,51V46.67q0-.084-.126-.084H34.215a.822.822,0,0,1-.63-.273.687.687,0,0,1-.168-.651l.294-1.638a1.179,1.179,0,0,1,.357-.588.927.927,0,0,1,.651-.252Zm8.9-3.066a.9.9,0,0,1-.231.63.839.839,0,0,1-.651.252h-2.1a.927.927,0,0,1-.651-.252.822.822,0,0,1-.273-.63V20.966a.913.913,0,0,1,.273-.63.859.859,0,0,1,.651-.294h2.1a.78.78,0,0,1,.651.294,1,1,0,0,1,.231.63Zm11.97-11.76a17.284,17.284,0,0,1,3.213,1.365A8.63,8.63,0,0,1,64.98,31.3a4.927,4.927,0,0,1,1.092,1.785,6.4,6.4,0,0,1,.315,2.037,5.565,5.565,0,0,1-.42,1.974A5.664,5.664,0,0,1,64.6,39.11a7.756,7.756,0,0,1-2.436,1.554,9.331,9.331,0,0,1-3.633.63,11.376,11.376,0,0,1-2.1-.189,14.837,14.837,0,0,1-1.848-.462,14.658,14.658,0,0,1-1.449-.546q-.609-.273-.9-.441a1.112,1.112,0,0,1-.525-.567,1.46,1.46,0,0,1-.063-.651l.378-2.016a.652.652,0,0,1,.4-.567.847.847,0,0,1,.693.1q.588.336,1.869.924a7.589,7.589,0,0,0,3.171.588,6.089,6.089,0,0,0,3.276-.672,1.974,1.974,0,0,0,1.008-1.68,2.252,2.252,0,0,0-.945-1.806,9.3,9.3,0,0,0-2.919-1.386,16.143,16.143,0,0,1-1.848-.63A12.127,12.127,0,0,1,54.4,30.059,7.772,7.772,0,0,1,52.4,28.106a4.714,4.714,0,0,1-.84-2.814,4.953,4.953,0,0,1,.735-2.646,5.2,5.2,0,0,1,1.806-1.68,8.279,8.279,0,0,1,2.52-.9A15.07,15.07,0,0,1,59.5,19.79a9.527,9.527,0,0,1,1.743.168q.9.168,1.7.378t1.428.42q.63.21.924.336a.543.543,0,0,1,.315.42,1.832,1.832,0,0,1-.063.588l-.336,1.764a.65.65,0,0,1-.441.5,1.319,1.319,0,0,1-.9-.084,8.235,8.235,0,0,0-1.449-.525,12.829,12.829,0,0,0-2.919-.4,7.932,7.932,0,0,0-2.163.231,3.534,3.534,0,0,0-1.2.567,1.478,1.478,0,0,0-.525.672,1.927,1.927,0,0,0-.1.546,1.853,1.853,0,0,0,1.05,1.659A18.47,18.47,0,0,0,59.709,28.358Zm1.6-17.136a.952.952,0,0,1,.252-.63.841.841,0,0,1,.672-.294h2.058a1.017,1.017,0,0,1,.924.924v4.494a.859.859,0,0,1-.294.651.913.913,0,0,1-.63.273H50.343a.794.794,0,0,1-.672-.273.9.9,0,0,1-.126-.735l.294-1.806a1.127,1.127,0,0,1,.378-.588.952.952,0,0,1,.63-.252H61.179a.111.111,0,0,0,.126-.126Zm24.444,8.82a.859.859,0,0,1,.651.294.913.913,0,0,1,.273.63V38.774a.93.93,0,0,1-.483.84,6.611,6.611,0,0,1-.777.42,7.137,7.137,0,0,1-.693.21q-.609.168-1.533.378A20.726,20.726,0,0,1,80.814,41a27.566,27.566,0,0,1-3.087.168,8.881,8.881,0,0,1-5.964-1.932h.042a6.466,6.466,0,0,1-1.68-2.352,7.049,7.049,0,0,1-.588-2.772,5.553,5.553,0,0,1,.21-1.533,7.015,7.015,0,0,1,.5-1.3,5.946,5.946,0,0,1,.651-1.008,9.158,9.158,0,0,1,.609-.693,7.928,7.928,0,0,1-1.134-1.6,5.037,5.037,0,0,1-.63-2.562,5.079,5.079,0,0,1,.651-2.646,6.377,6.377,0,0,1,1.743-1.89,6.18,6.18,0,0,1,1.785-.8,7.081,7.081,0,0,1,1.827-.252,5.948,5.948,0,0,1,1.512.21,1.154,1.154,0,0,1,.882,1.134q-.042.42-.042.714V22.6q0,.672-.336.777a2.118,2.118,0,0,1-.63.1,4.973,4.973,0,0,0-2.583.483,1.95,1.95,0,0,0-1.2,1.617,1.8,1.8,0,0,0,.336,1.47,3.126,3.126,0,0,0,1.113.84,4.591,4.591,0,0,0,1.344.378,9.552,9.552,0,0,0,1.071.084.831.831,0,0,1,.567.168q.189.168.105.63l-.252,1.68q-.084.42-.315.5a1.4,1.4,0,0,1-.483.084,4.18,4.18,0,0,0-2.541.42A2.146,2.146,0,0,0,73.233,33.9a2.772,2.772,0,0,0,.273,1.176,3.063,3.063,0,0,0,.819,1.05,4.614,4.614,0,0,0,1.407.777,5.931,5.931,0,0,0,2.037.315q1.344,0,2.6-.1a14.671,14.671,0,0,0,2.142-.315q.21,0,.21-.252V20.966a.913.913,0,0,1,.273-.63.859.859,0,0,1,.651-.294Zm22.386,0a.8.8,0,0,1,.63.294.952.952,0,0,1,.252.63v19.11a.927.927,0,0,1-.252.651.822.822,0,0,1-.63.273h-2.142a.913.913,0,0,1-.63-.273.859.859,0,0,1-.294-.651v-2.31a16.069,16.069,0,0,1-1.2,1.155,8.877,8.877,0,0,1-1.617,1.113,10.879,10.879,0,0,1-2.016.84,8.11,8.11,0,0,1-2.394.336,6.013,6.013,0,0,1-4.683-2.058,7.919,7.919,0,0,1-1.743-5.04V20.966a.913.913,0,0,1,.273-.63.859.859,0,0,1,.651-.294H94.4a.859.859,0,0,1,.651.294.913.913,0,0,1,.273.63V34.112a4.035,4.035,0,0,0,.588,2.247,2.362,2.362,0,0,0,2.142.9,7.637,7.637,0,0,0,2.856-.5,6.521,6.521,0,0,0,2.163-1.386,6.336,6.336,0,0,0,1.407-2.058,7.542,7.542,0,0,0,.588-2.52V20.966a1.017,1.017,0,0,1,.924-.924Zm14.49-.252a12.339,12.339,0,0,1,4.557.525,8.907,8.907,0,0,1,3.108,1.722,6.578,6.578,0,0,1,1.743,2.394,6.193,6.193,0,0,1,.5,2.583V40.076a.927.927,0,0,1-.252.651.822.822,0,0,1-.63.273h-2.142a1.249,1.249,0,0,1-.63-.168q-.294-.168-.294-.756V27.6a3.575,3.575,0,0,0-.525-2.037,3.48,3.48,0,0,0-1.3-1.176,5.645,5.645,0,0,0-1.638-.546,9.22,9.22,0,0,0-1.533-.147,12.205,12.205,0,0,0-3.129.336,7.322,7.322,0,0,0-1.575.546.486.486,0,0,0-.084.336V40.076a.859.859,0,0,1-.294.651.913.913,0,0,1-.63.273h-4.032a.871.871,0,0,1-.672-.273,1.384,1.384,0,0,1-.336-.609l-.294-2.1a.687.687,0,0,1,.168-.651.871.871,0,0,1,.672-.273h1.344a.111.111,0,0,0,.126-.126V22.688a1.294,1.294,0,0,1,.672-1.05q1.134-.5,2.352-.924,1.05-.336,2.289-.609A13.575,13.575,0,0,1,122.625,19.79Zm8.526,23.394a.859.859,0,0,1,.651.294.913.913,0,0,1,.273.63v3.066a4.6,4.6,0,0,1-1.26,3.4,5.2,5.2,0,0,1-3.822,1.26,5.274,5.274,0,0,1-2.016-.378V51.5a3.6,3.6,0,0,1-2.121-1.554,5.208,5.208,0,0,1-.693-2.562V46.67q0-.042-.126-.042h-1.6a.841.841,0,0,1-.672-.294.736.736,0,0,1-.168-.672l.252-1.638v.042a1.238,1.238,0,0,1,.378-.609.913.913,0,0,1,.63-.273h3.7a1.017,1.017,0,0,1,.924.924v3.444a1.557,1.557,0,0,0,.462.945,1.468,1.468,0,0,0,1.05.357q1.6,0,1.6-1.68V44.108a1.017,1.017,0,0,1,.924-.924Zm9.156-3.066a.9.9,0,0,1-.231.63.839.839,0,0,1-.651.252h-2.1a.927.927,0,0,1-.651-.252.822.822,0,0,1-.273-.63V20.966a.913.913,0,0,1,.273-.63.859.859,0,0,1,.651-.294h2.1a.78.78,0,0,1,.651.294,1,1,0,0,1,.231.63Zm18.228-20.076a1.017,1.017,0,0,1,.924.924v17.22a1.176,1.176,0,0,1-.168.693,2,2,0,0,1-.462.441q-1.05.5-2.142.924-.966.336-2.121.63a9.251,9.251,0,0,1-2.289.294,11.618,11.618,0,0,1-4.305-.672,6.735,6.735,0,0,1-2.583-1.722,5.465,5.465,0,0,1-1.239-2.352,10.7,10.7,0,0,1-.315-2.52V29.786a2.956,2.956,0,0,1,.777-2.121,14.948,14.948,0,0,1,1.575-1.449,7.95,7.95,0,0,0,.924-.819,1.158,1.158,0,0,0,.378-.777v-.882a.111.111,0,0,0-.126-.126h-2.6a.889.889,0,0,1-.651-.273.721.721,0,0,1-.189-.693l.252-1.722a1.3,1.3,0,0,1,.357-.609.843.843,0,0,1,.609-.273h5.376a.859.859,0,0,1,.651.294.913.913,0,0,1,.273.63V24.7a3.259,3.259,0,0,1-.735,2.226,15,15,0,0,1-1.575,1.554q-.546.462-.966.882a1.284,1.284,0,0,0-.42.924V33.4a4.922,4.922,0,0,0,.357,2.037,2.847,2.847,0,0,0,.924,1.176,3.387,3.387,0,0,0,1.26.546,6.566,6.566,0,0,0,1.365.147,8.536,8.536,0,0,0,2.688-.315,7.057,7.057,0,0,0,1.218-.525v-15.5a.913.913,0,0,1,.273-.63.817.817,0,0,1,.609-.294Zm11.34-.168a9.857,9.857,0,0,1,3.99.693,6.365,6.365,0,0,1,2.394,1.722,5.81,5.81,0,0,1,1.155,2.289,9.879,9.879,0,0,1,.315,2.394v13.1a.975.975,0,0,1-.231.651.857.857,0,0,1-.693.273h-1.974a.843.843,0,0,1-.609-.273.889.889,0,0,1-.273-.651V26.636a2.8,2.8,0,0,0-1.617-2.772,4.874,4.874,0,0,0-1.533-.441q-.84-.1-1.638-.147a6.967,6.967,0,0,0-1.449.147q-.693.147-1.281.315a13.178,13.178,0,0,0-1.26.462,1.293,1.293,0,0,1-.777.105.868.868,0,0,1-.651-.4l-.714-1.176a1.063,1.063,0,0,1-.147-.609.765.765,0,0,1,.4-.567,11.4,11.4,0,0,1,1.848-.84,13.976,13.976,0,0,1,2.079-.588A12.981,12.981,0,0,1,169.875,19.874ZM188.859,7.358a.857.857,0,0,1,.693.273.975.975,0,0,1,.231.651v1.6a3.62,3.62,0,0,1-.63,2.226,11.143,11.143,0,0,1-1.386,1.533,16,16,0,0,0-1.428,1.491,3.58,3.58,0,0,0-.756,2.142V40.076a.975.975,0,0,1-.231.651A.806.806,0,0,1,184.7,41h-2.058a.932.932,0,0,1-.924-.924V18.194a11.278,11.278,0,0,1,.315-2.94,6.729,6.729,0,0,1,.777-1.848,3.856,3.856,0,0,1,.966-1.071,7.2,7.2,0,0,1,.924-.567q.336-.168.882-.42a1.7,1.7,0,0,0,.756-.588h-7.9a.654.654,0,0,1-.672-.21.911.911,0,0,1-.21-.714l.294-1.638a1.127,1.127,0,0,1,.378-.588.952.952,0,0,1,.63-.252Zm24.57,6.888a.739.739,0,0,1,.588.315,1.032,1.032,0,0,1,.252.651l-3.4,24.906a1.3,1.3,0,0,1-.357.609A.843.843,0,0,1,209.9,41h-1.722a1.259,1.259,0,0,1-.672-.21,1.211,1.211,0,0,1-.462-.462v.042L202.3,31.34l-4.7,8.946a2,2,0,0,1-.525.5,1.159,1.159,0,0,1-.651.21H194.7a.913.913,0,0,1-.63-.273,1.238,1.238,0,0,1-.378-.609l-2.562-19.152a1.263,1.263,0,0,1,.273-.63.7.7,0,0,1,.567-.294h2.1a.908.908,0,0,1,.672.252,1.246,1.246,0,0,1,.336.588L196.8,32.936l.126,1.554.378-1.554,3.822-7.476a1.19,1.19,0,0,1,1.218-.672,1.448,1.448,0,0,1,1.134.672l3.78,7.476.378,1.554.126-1.554,2.6-17.808a1.133,1.133,0,0,1,.378-.63.952.952,0,0,1,.63-.252Zm25.7,7.518a.911.911,0,0,1,.336.462.5.5,0,0,1-.042.357,1.178,1.178,0,0,1-.252.294q-.168.147-.336.273l-1.092.63a4.641,4.641,0,0,1-.882.378q-.42.126-.8.21a5.674,5.674,0,0,1,.63,2.646V40.076a.859.859,0,0,1-.294.651.913.913,0,0,1-.63.273h-2.142a.822.822,0,0,1-.63-.273.927.927,0,0,1-.252-.651V27.6a3.854,3.854,0,0,0-.42-1.785,4.086,4.086,0,0,0-1.155-1.386,5.556,5.556,0,0,0-1.722-.882,6.938,6.938,0,0,0-2.121-.315,9.434,9.434,0,0,0-3,.483A5.652,5.652,0,0,0,222.081,25a1.1,1.1,0,0,0-.168.231,1.151,1.151,0,0,0-.084.525v3.192a2.582,2.582,0,0,1,.987-.378,5.839,5.839,0,0,1,.9-.084h2.9a.927.927,0,0,1,.651.252,1.178,1.178,0,0,1,.357.588l.294,1.6a.664.664,0,0,1-.189.651.889.889,0,0,1-.651.273h-3.57a1.792,1.792,0,0,0-.882.189,1.291,1.291,0,0,0-.5.483,2.021,2.021,0,0,0-.231.609,2.919,2.919,0,0,0-.063.567v6.384a.859.859,0,0,1-.294.651.913.913,0,0,1-.63.273h-2.142a.913.913,0,0,1-.63-.273.859.859,0,0,1-.294-.651V25.208a2.423,2.423,0,0,1,.336-1.218,6.6,6.6,0,0,1,1.575-1.806,9.981,9.981,0,0,1,2.205-1.344,12.023,12.023,0,0,1,2.6-.819,14.312,14.312,0,0,1,2.772-.273,11.715,11.715,0,0,1,3.15.42,11.942,11.942,0,0,1,2.814,1.176q.084.042.231.1a.6.6,0,0,0,.357.021,6.136,6.136,0,0,0,1.344-.483,8.766,8.766,0,0,0,1.26-.777q.168-.084.441-.231t.735.315ZM249.3,28.358a17.284,17.284,0,0,1,3.213,1.365,8.63,8.63,0,0,1,2.058,1.575,4.927,4.927,0,0,1,1.092,1.785,6.4,6.4,0,0,1,.315,2.037,5.565,5.565,0,0,1-.42,1.974,5.664,5.664,0,0,1-1.365,2.016,7.756,7.756,0,0,1-2.436,1.554,9.331,9.331,0,0,1-3.633.63,11.376,11.376,0,0,1-2.1-.189,14.836,14.836,0,0,1-1.848-.462,14.657,14.657,0,0,1-1.449-.546q-.609-.273-.9-.441a1.112,1.112,0,0,1-.525-.567,1.46,1.46,0,0,1-.063-.651l.378-2.016a.652.652,0,0,1,.4-.567.847.847,0,0,1,.693.1q.588.336,1.869.924a7.589,7.589,0,0,0,3.171.588,6.089,6.089,0,0,0,3.276-.672,1.974,1.974,0,0,0,1.008-1.68,2.252,2.252,0,0,0-.945-1.806,9.3,9.3,0,0,0-2.919-1.386,16.144,16.144,0,0,1-1.848-.63,12.127,12.127,0,0,1-2.331-1.239,7.772,7.772,0,0,1-1.995-1.953,4.714,4.714,0,0,1-.84-2.814,4.953,4.953,0,0,1,.735-2.646,5.2,5.2,0,0,1,1.806-1.68,8.279,8.279,0,0,1,2.52-.9,15.07,15.07,0,0,1,2.877-.273,9.527,9.527,0,0,1,1.743.168q.9.168,1.7.378t1.428.42q.63.21.924.336a.543.543,0,0,1,.315.42,1.832,1.832,0,0,1-.063.588l-.336,1.764a.65.65,0,0,1-.441.5,1.319,1.319,0,0,1-.9-.084,8.235,8.235,0,0,0-1.449-.525,12.829,12.829,0,0,0-2.919-.4,7.932,7.932,0,0,0-2.163.231,3.534,3.534,0,0,0-1.2.567,1.478,1.478,0,0,0-.525.672,1.927,1.927,0,0,0-.1.546,1.853,1.853,0,0,0,1.05,1.659A18.47,18.47,0,0,0,249.3,28.358Zm1.6-17.136a.952.952,0,0,1,.252-.63.841.841,0,0,1,.672-.294h2.058a1.017,1.017,0,0,1,.924.924v4.494a.859.859,0,0,1-.294.651.913.913,0,0,1-.63.273H239.931a.794.794,0,0,1-.672-.273.9.9,0,0,1-.126-.735l.294-1.806a1.127,1.127,0,0,1,.378-.588.952.952,0,0,1,.63-.252h10.332a.111.111,0,0,0,.126-.126Zm27.762,10.416a1.088,1.088,0,0,1,.336.525.55.55,0,0,1-.042.378,1.044,1.044,0,0,1-.231.273.849.849,0,0,1-.273.168,4.4,4.4,0,0,1-.588.357q-.294.147-.63.357a3.1,3.1,0,0,1-.756.336q-.42.126-.8.21.084.336.189.861a5.67,5.67,0,0,1,.1,1.113v13.9a.822.822,0,0,1-.273.63.877.877,0,0,1-.609.252h-2.142a1.486,1.486,0,0,1-.609-.168q-.357-.168-.357-.756V38.627q0-.987.021-2.163t.021-2.394V31.886q0-.126-.084-.126h-5.25a5.881,5.881,0,0,0-3.045.672,2.22,2.22,0,0,0-1.2,1.764v.462q0,.294.021.609t.021.567v.294a1.312,1.312,0,0,0,.336.861,1.143,1.143,0,0,0,.924.4h.8a2.137,2.137,0,0,0,.42-.042.982.982,0,0,1,.693.252.822.822,0,0,1,.273.63l.042,1.974a.877.877,0,0,1-.252.609,1.179,1.179,0,0,1-.588.357,9.7,9.7,0,0,1-2.625-.021,4.144,4.144,0,0,1-2.415-1.323,4.218,4.218,0,0,1-.882-1.239,10.3,10.3,0,0,1-.462-1.2,6.536,6.536,0,0,1-.21-1.218V34.616a5.594,5.594,0,0,1,.567-2.5,5.82,5.82,0,0,1,1.617-2,9,9,0,0,1,5.712-1.68h5.5q.084,0,.084-.126v-2.1a3.477,3.477,0,0,0-.1-.714,1.893,1.893,0,0,0-.546-.9,3.72,3.72,0,0,0-1.407-.777,8.328,8.328,0,0,0-2.646-.336,11,11,0,0,0-3.318.42,14.907,14.907,0,0,0-1.974.756.83.83,0,0,1-.609.021,1.042,1.042,0,0,1-.525-.4,13.4,13.4,0,0,1-.966-1.386,1.127,1.127,0,0,1-.126-.693.729.729,0,0,1,.294-.567q.378-.168,1.05-.483a14.514,14.514,0,0,1,1.638-.63,15.652,15.652,0,0,1,4.83-.735,14.6,14.6,0,0,1,3.066.315,8.081,8.081,0,0,1,2.562.987q.084.042.252.147a.566.566,0,0,0,.462.021q.5-.21,1.029-.462a4.109,4.109,0,0,0,.987-.672,1.217,1.217,0,0,1,.483-.273q.315-.1.777.357Zm10.794,2.478a.927.927,0,0,1,.651.252.674.674,0,0,1,.189.672l-.378,1.89a1.067,1.067,0,0,1-.357.567.92.92,0,0,1-.609.231H282.6a.975.975,0,0,1-.651-.231.806.806,0,0,1-.273-.651V23.864a.975.975,0,0,1,.231-.651,1.079,1.079,0,0,1,.609-.357l1.386-.252a.836.836,0,0,1,.714.147.78.78,0,0,1,.294.651v.588a.111.111,0,0,0,.126.126Zm0,10.752a.835.835,0,0,1,.651.315.76.76,0,0,1,.189.693l-.378,1.848a1.178,1.178,0,0,1-.357.588.877.877,0,0,1-.609.252H282.6a.859.859,0,0,1-.651-.294.913.913,0,0,1-.273-.63V34.658a1,1,0,0,1,.231-.63,1.036,1.036,0,0,1,.609-.378l1.386-.252a.8.8,0,0,1,.714.168.841.841,0,0,1,.294.672v.546q0,.084.126.084Zm8.9,5.25a.9.9,0,0,1-.231.63.839.839,0,0,1-.651.252h-2.1a.927.927,0,0,1-.651-.252.822.822,0,0,1-.273-.63V20.966a.914.914,0,0,1,.273-.63.859.859,0,0,1,.651-.294h2.1a.78.78,0,0,1,.651.294,1,1,0,0,1,.231.63Zm12.726-20.37a13.031,13.031,0,0,1,4.473.672,8.743,8.743,0,0,1,2.961,1.722,6.335,6.335,0,0,1,1.638,2.331,6.9,6.9,0,0,1,.5,2.541V40.076a.859.859,0,0,1-.294.651.914.914,0,0,1-.63.273h-2.142a1.249,1.249,0,0,1-.63-.168q-.294-.168-.294-.756V27.6a3.575,3.575,0,0,0-.525-2.037,3.662,3.662,0,0,0-1.3-1.2A5.3,5.3,0,0,0,313.2,23.8a9.22,9.22,0,0,0-1.533-.147,11.521,11.521,0,0,0-3.129.357,7.782,7.782,0,0,0-1.575.567.41.41,0,0,0-.084.294v15.2a.927.927,0,0,1-.252.651A.822.822,0,0,1,306,41h-2.142a.913.913,0,0,1-.63-.273.859.859,0,0,1-.294-.651V22.688a1.13,1.13,0,0,1,.189-.567,1.569,1.569,0,0,1,.525-.525q1.134-.5,2.352-.924,1.05-.336,2.31-.609a13.962,13.962,0,0,1,2.478-.315Zm33.516,8.61a.908.908,0,0,1,.672.252.759.759,0,0,1,.168.714l-.252,1.512a1.025,1.025,0,0,1-.378.567,1,1,0,0,1-.63.231h-1.218v2.394a7.164,7.164,0,0,1-.483,2.541,6.393,6.393,0,0,1-1.6,2.352,8.316,8.316,0,0,1-2.94,1.743,13.175,13.175,0,0,1-4.515.672h-.252a12.968,12.968,0,0,1-2.52-.336q-1.26-.294-2.31-.651t-1.7-.651a6.9,6.9,0,0,0-.693-.294,1.06,1.06,0,0,1-.63-1.05V20.966a.914.914,0,0,1,.273-.63.859.859,0,0,1,.651-.294H328.3a.859.859,0,0,1,.651.294.914.914,0,0,1,.273.63V36.212q0,.168.252.336a6.777,6.777,0,0,0,1.491.525,12.149,12.149,0,0,0,3.087.315,9.22,9.22,0,0,0,1.533-.147,5.3,5.3,0,0,0,1.638-.567,3.662,3.662,0,0,0,1.3-1.2,3.575,3.575,0,0,0,.525-2.037V31.634h-2.982a.889.889,0,0,1-.651-.273.664.664,0,0,1-.189-.651l.294-1.554a1.067,1.067,0,0,1,.357-.567.975.975,0,0,1,.651-.231h2.52V20.966a.839.839,0,0,1,.273-.735,1.115,1.115,0,0,1,.651-.189h2.1a.78.78,0,0,1,.651.294,1,1,0,0,1,.231.63v7.392Z" transform="translate(63 369)" fill="#558b2f"/><g transform="matrix(1, 0, 0, 1, 0, 0)" filter="url(#a)"><ellipse cx="130.5" cy="8.5" rx="130.5" ry="8.5" transform="translate(98.2 326.04)" fill="#d8d8d8" opacity="0.398"/></g><path d="M10,0H381a10,10,0,0,1,10,10v9a10,10,0,0,1-10,10H10A10,10,0,0,1,0,19V10A10,10,0,0,1,10,0Z" transform="translate(55 430)" fill="#558b2f"/><path d="M13.65,9.68q.16.16.07.23t-.15.11a3.557,3.557,0,0,1-.58.36,3.665,3.665,0,0,1-.45.17,3.7,3.7,0,0,1-.47.11q-.02,0-.02.06.02.04.11.37a2.771,2.771,0,0,1,.09.73v6.94q0,.24-.26.24H10.93q-.26,0-.26-.24V14.64q0-.26-.24-.26H7.81a3.245,3.245,0,0,0-1.7.38,1.168,1.168,0,0,0-.62,1.04v.44q0,.16.01.32t.01.2a.864.864,0,0,0,.22.59.758.758,0,0,0,.6.25h.42a1.346,1.346,0,0,0,.22-.02q.26,0,.26.24l.02.98a.257.257,0,0,1-.24.28q-.2.02-.34.04a.409.409,0,0,1-.13.02H6.33a2.194,2.194,0,0,1-1.68-.66,1.942,1.942,0,0,1-.41-.57,4.81,4.81,0,0,1-.21-.55,3.113,3.113,0,0,1-.1-.58v-.76a2.541,2.541,0,0,1,1.02-2.1,4.22,4.22,0,0,1,2.74-.8h2.74q.24,0,.24-.26V11.82a2.333,2.333,0,0,0-.05-.42,1.055,1.055,0,0,0-.3-.52,1.936,1.936,0,0,0-.77-.44,4.567,4.567,0,0,0-1.44-.18,5.5,5.5,0,0,0-1.69.22,9.477,9.477,0,0,0-1.01.38.3.3,0,0,1-.2.01.21.21,0,0,1-.14-.13l-.48-.7a.293.293,0,0,1-.06-.18.143.143,0,0,1,.08-.14q.18-.1.51-.25a7.387,7.387,0,0,1,.8-.3,8.819,8.819,0,0,1,1.06-.26A7.05,7.05,0,0,1,8.27,8.8a7.193,7.193,0,0,1,1.49.15,3.613,3.613,0,0,1,1.21.47.649.649,0,0,0,.18.1.493.493,0,0,0,.34,0,5.037,5.037,0,0,0,.68-.3,3.64,3.64,0,0,0,.4-.28.439.439,0,0,1,.13-.08q.09-.04.23.1Zm2.28-.74h1.06a.23.23,0,0,1,.26.26v4.88a3.917,3.917,0,0,0,.31,1.33,3.358,3.358,0,0,0,.74,1.09,3.452,3.452,0,0,0,1.14.73,4.01,4.01,0,0,0,1.51.27,1.662,1.662,0,0,0,.89-.18,1.6,1.6,0,0,0,.33-.26,2.273,2.273,0,0,0,.34-1.36V9.2a.23.23,0,0,1,.26-.26h1.04a.23.23,0,0,1,.26.26v6.5a4.4,4.4,0,0,1-.1.99,4.321,4.321,0,0,1-.22.71,2.775,2.775,0,0,1-.22.43l-.1.15a3.123,3.123,0,0,1-.86.71,3.044,3.044,0,0,1-1.52.37,4.061,4.061,0,0,1-1.33-.21,4.563,4.563,0,0,1-1.07-.52,5.374,5.374,0,0,1-.8-.65,4.559,4.559,0,0,1-.52-.6.465.465,0,0,1-.07-.09q-.03-.05-.03.11v1.64q0,.26-.24.26H15.93a.23.23,0,0,1-.26-.26V9.2A.23.23,0,0,1,15.93,8.94ZM26.15,6.08q.26,0,.22.24l-.16.84a.284.284,0,0,1-.3.24H20.37a.266.266,0,0,1-.18-.07.218.218,0,0,1-.08-.17V5.8a.249.249,0,0,1,.08-.18.349.349,0,0,1,.18-.1l.7-.1a.174.174,0,0,1,.18.02.19.19,0,0,1,.08.16v.24q0,.24.26.24Zm4.46,2.7a5.7,5.7,0,0,1,1.69.25,4.709,4.709,0,0,1,1.42.7,3.6,3.6,0,0,1,.98,1.08,2.732,2.732,0,0,1,.37,1.41v6.52a.23.23,0,0,1-.26.26H33.75a.23.23,0,0,1-.26-.26V12.52a2.083,2.083,0,0,0-.23-.98,2.432,2.432,0,0,0-.62-.76,2.78,2.78,0,0,0-.91-.49,3.584,3.584,0,0,0-1.12-.17,5.41,5.41,0,0,0-1.6.24,2.49,2.49,0,0,0-1.18.7.747.747,0,0,0-.12.17.767.767,0,0,0-.06.35v1.76q0,.22.03.2a.328.328,0,0,0,.05-.04,1.114,1.114,0,0,1,.55-.28,2.791,2.791,0,0,1,.51-.06h1.46a.268.268,0,0,1,.3.24l.14.78q.04.24-.22.24H28.69a1.1,1.1,0,0,0-.55.12.906.906,0,0,0-.32.29.927.927,0,0,0-.14.37,2.45,2.45,0,0,0-.03.36v3.18a.23.23,0,0,1-.26.26H26.33a.23.23,0,0,1-.26-.26V11.32a1.125,1.125,0,0,1,.04-.34,1.552,1.552,0,0,1,.08-.2,3.032,3.032,0,0,1,.75-.88,4.481,4.481,0,0,1,1.05-.63,5.674,5.674,0,0,1,1.25-.37A7.756,7.756,0,0,1,30.61,8.78Zm10.04,4.28a8.555,8.555,0,0,1,1.54.65,4.047,4.047,0,0,1,.99.75,2.346,2.346,0,0,1,.52.85,2.984,2.984,0,0,1,.15.95,2.5,2.5,0,0,1-.2.92,2.749,2.749,0,0,1-.65.94,3.563,3.563,0,0,1-1.16.73,4.58,4.58,0,0,1-1.73.29,5.417,5.417,0,0,1-1-.09,7.065,7.065,0,0,1-.88-.22,6.194,6.194,0,0,1-.7-.27q-.3-.14-.44-.22a.384.384,0,0,1-.2-.4l.18-.98a.163.163,0,0,1,.09-.13.172.172,0,0,1,.15.01q.32.18.99.49a3.865,3.865,0,0,0,1.63.31,3.159,3.159,0,0,0,1.8-.39,1.177,1.177,0,0,0,.54-.99,1.28,1.28,0,0,0-.47-1.02,4.827,4.827,0,0,0-1.61-.76q-.28-.08-.83-.28a5.853,5.853,0,0,1-1.12-.56,3.937,3.937,0,0,1-.99-.89,2.012,2.012,0,0,1-.42-1.29v-.1a2.216,2.216,0,0,1,.36-1.23,2.606,2.606,0,0,1,.87-.79,3.763,3.763,0,0,1,1.19-.42,7.589,7.589,0,0,1,1.36-.12,4.537,4.537,0,0,1,.83.08q.43.08.8.18t.67.2q.3.1.44.16a.136.136,0,0,1,.1.13.97.97,0,0,1-.02.19l-.18.86q-.04.22-.28.12a5.025,5.025,0,0,0-.79-.3,5.437,5.437,0,0,0-1.35-.22q-.28,0-.7.02a3.142,3.142,0,0,0-.8.14,1.763,1.763,0,0,0-.65.36.862.862,0,0,0-.27.68,1.051,1.051,0,0,0,.56.94A8.919,8.919,0,0,0,40.65,13.06ZM47.91,3.2a3.052,3.052,0,0,1,.28.13,2.262,2.262,0,0,1,.47.33,2.013,2.013,0,0,1,.44.58,1.82,1.82,0,0,1,.19.86,2.157,2.157,0,0,1-.25,1.08,2.441,2.441,0,0,1-.73.78,1.671,1.671,0,0,1-.32.2,1.425,1.425,0,0,0-.39.3,1.625,1.625,0,0,0-.32.53,2.417,2.417,0,0,0-.13.87v9.88q0,.26-.24.26H45.85a.23.23,0,0,1-.26-.26V9.32a4.759,4.759,0,0,1,.21-1.53,3.548,3.548,0,0,1,.48-.97,2.117,2.117,0,0,1,.52-.52,2.582,2.582,0,0,1,.35-.2,1.963,1.963,0,0,0,.64-.42.829.829,0,0,0,.2-.58.839.839,0,0,0-.07-.34.664.664,0,0,0-.3-.29,2.206,2.206,0,0,0-.67-.21,6.891,6.891,0,0,0-1.18-.08,4,4,0,0,0-.99.13,8.219,8.219,0,0,0-.83.25.269.269,0,0,1-.19.01q-.09-.03-.11-.19-.02-.08-.05-.25t-.05-.33a.257.257,0,0,1,.03-.24.439.439,0,0,1,.17-.12,9.326,9.326,0,0,1,.9-.26,6.5,6.5,0,0,1,1-.16,9.069,9.069,0,0,1,1.13-.01A4.826,4.826,0,0,1,47.91,3.2Zm9.3,5.5q.24-.06.24.2v.94a2.272,2.272,0,0,1-.25,1.1,2.669,2.669,0,0,1-.75.84q-.12.1-.11.14a.127.127,0,0,0,.03.06,2.512,2.512,0,0,1,.8,1.9v3.9a.4.4,0,0,1-.06.24.905.905,0,0,1-.16.16q-.52.24-1.04.44-.46.16-1.02.3a4.525,4.525,0,0,1-1.1.14,5.532,5.532,0,0,1-2.05-.32,3.174,3.174,0,0,1-1.22-.81,2.584,2.584,0,0,1-.58-1.1,4.974,4.974,0,0,1-.15-1.19V13.6a1.362,1.362,0,0,1,.35-.96,5.53,5.53,0,0,1,.75-.68q.28-.24.49-.46a.7.7,0,0,0,.21-.5v-.44a.23.23,0,0,0-.26-.26H50.05q-.26,0-.22-.26l.12-.86a.274.274,0,0,1,.3-.26h2.68q.24,0,.24.26v1.86a1.447,1.447,0,0,1-.35,1.02q-.35.38-.73.72a5.978,5.978,0,0,0-.51.49.819.819,0,0,0-.23.57v1.54a2.632,2.632,0,0,0,.2,1.12,1.7,1.7,0,0,0,.51.65,1.749,1.749,0,0,0,.69.31,3.588,3.588,0,0,0,.74.08,4.387,4.387,0,0,0,1.42-.17,2.743,2.743,0,0,0,.62-.29.251.251,0,0,0,.06-.1.916.916,0,0,0,.02-.24V13.56a.936.936,0,0,0-.3-.79,3.5,3.5,0,0,0-.64-.39.325.325,0,0,1-.16-.14.275.275,0,0,1-.04-.2.329.329,0,0,1,.02-.1.2.2,0,0,0,.02-.09.2.2,0,0,1,.02-.09.361.361,0,0,1,.16-.25q.12-.07.2-.11a3.031,3.031,0,0,0,.68-.47.989.989,0,0,0,.32-.77V9.18a.274.274,0,0,1,.26-.3Zm.28-2.72q.26,0,.22.26l-.16.92a.284.284,0,0,1-.3.24H53.17q-.26,0-.26-.24v-.9A.23.23,0,0,0,52.65,6h-.78a.231.231,0,0,1-.17-.07.145.145,0,0,1-.03-.17l.26-.94a.4.4,0,0,1,.13-.17.3.3,0,0,1,.19-.07h1.62a.23.23,0,0,1,.26.26v.88a.23.23,0,0,0,.26.26Zm8.54,4.12a4.874,4.874,0,0,1,.68,1.4,7.269,7.269,0,0,1,.32,2.32,9.674,9.674,0,0,1-.18,1.9,4.594,4.594,0,0,1-.63,1.6,3.578,3.578,0,0,1-1.21,1.15,4.358,4.358,0,0,1-1.94.53H61.69a.3.3,0,0,1-.32-.24L58.67,9.7q-.08-.24.18-.32l1-.28q.24-.08.32.18.66,2.24,1.18,4,.22.76.44,1.49t.4,1.31q.18.58.29.95t.13.41a.219.219,0,0,0,.18.2.588.588,0,0,0,.14.02,3.3,3.3,0,0,0,.9-.13,1.761,1.761,0,0,0,.83-.54,3.05,3.05,0,0,0,.6-1.17,7.188,7.188,0,0,0,.23-2.02,6.482,6.482,0,0,0-.12-1.34,6.155,6.155,0,0,0-.26-.92,2.6,2.6,0,0,0-.26-.53l-.12-.17a1.984,1.984,0,0,0-.53-.39,2.48,2.48,0,0,0-1.01-.23.137.137,0,0,1-.12-.1l-.04-.16-.16-.84a.324.324,0,0,1,.01-.18q.03-.08.19-.08A3.656,3.656,0,0,1,66.03,10.1Zm4.96-1.24a4.749,4.749,0,0,1,1.89.32,2.956,2.956,0,0,1,1.13.81,2.772,2.772,0,0,1,.55,1.08,4.585,4.585,0,0,1,.15,1.13v6.54a.23.23,0,0,1-.26.26h-.98a.23.23,0,0,1-.26-.26V12.02a1.569,1.569,0,0,0-.87-1.53,2.514,2.514,0,0,0-.83-.25q-.46-.06-.88-.08a4.411,4.411,0,0,0-.8.07,5.057,5.057,0,0,0-.68.17,2.791,2.791,0,0,0-.64.26.26.26,0,0,1-.21.03.3.3,0,0,1-.17-.11l-.38-.6q-.16-.18.06-.34a6.956,6.956,0,0,1,.88-.38,6.6,6.6,0,0,1,2.3-.4Zm13.78.08q.24,0,.24.26v9.54q0,.26-.24.26H83.71a.23.23,0,0,1-.26-.26v-1.6q0-.16-.03-.11t-.05.09a4.56,4.56,0,0,1-.52.6,5.153,5.153,0,0,1-.81.65,4.835,4.835,0,0,1-1.07.52,3.972,3.972,0,0,1-1.32.21,3.044,3.044,0,0,1-1.52-.37,3.123,3.123,0,0,1-.86-.71l-.1-.15a2.776,2.776,0,0,1-.22-.43,4.383,4.383,0,0,1-.22-.7,4.264,4.264,0,0,1-.1-.98V9.2a.23.23,0,0,1,.26-.26h1.04a.23.23,0,0,1,.26.26v6.56a2.233,2.233,0,0,0,.34,1.34,1.6,1.6,0,0,0,.33.26,1.662,1.662,0,0,0,.89.18,4.01,4.01,0,0,0,1.51-.27,3.452,3.452,0,0,0,1.14-.73,3.358,3.358,0,0,0,.74-1.09,3.917,3.917,0,0,0,.31-1.33V9.2a.23.23,0,0,1,.26-.26Zm4.3,9.82a.212.212,0,0,1-.24.24H87.77q-.26,0-.26-.24V9.2a.23.23,0,0,1,.26-.26h1.06q.24,0,.24.26Zm13.04-9.82q.26,0,.22.26l-1.3,9.56a.257.257,0,0,1-.28.24h-.86a.431.431,0,0,1-.38-.22l-1.22-2.3-1.2-2.3q-.14-.2-.24,0l-1.22,2.3-1.22,2.3a.4.4,0,0,1-.38.22h-.86a.257.257,0,0,1-.28-.24L91.59,9.2q-.04-.26.22-.26h1.06q.22,0,.3.26l.94,6.66.02.48q0,.1.02.11t.06-.09l.14-.5,2.2-4.32a.354.354,0,0,1,.16-.17.444.444,0,0,1,.22-.07h.06a.444.444,0,0,1,.22.07.354.354,0,0,1,.16.17l2.22,4.32.14.5q.02.1.04.09t.02-.11l.02-.48.96-6.66a.264.264,0,0,1,.28-.26Zm.4-4.28a.23.23,0,0,1,.26.26V7.16q0,.24-.26.24H94.83a.218.218,0,0,1-.17-.08.163.163,0,0,1-.03-.18l.16-.9a.274.274,0,0,1,.3-.26h3.86a.23.23,0,0,0,.26-.26v-.8a.23.23,0,0,1,.26-.26h.72a.23.23,0,0,1,.26.26v.8a.23.23,0,0,0,.26.26h.26a.23.23,0,0,0,.26-.26v-.8q0-.26.24-.26Zm-.58-3.58a.23.23,0,0,1,.26.26v2.2a.23.23,0,0,1-.26.26h-1.04a.23.23,0,0,1-.26-.26V1.34a.23.23,0,0,1,.26-.26Zm5.04,7.7a6.206,6.206,0,0,1,2.22.38,4.793,4.793,0,0,1,2.83,2.79,5.927,5.927,0,0,1,.39,2.19,5.756,5.756,0,0,1-.35,2.06,4.4,4.4,0,0,1-1,1.57,4.29,4.29,0,0,1-1.57.99,5.97,5.97,0,0,1-2.08.34,9.613,9.613,0,0,1-1.62-.14,9.121,9.121,0,0,1-1.5-.38q-.04-.02-.14-.08t-.1-.26v-4.9a.23.23,0,0,1,.26-.26h2.24a.274.274,0,0,1,.3.26l.12.74q.04.26-.22.26h-.92q-.24,0-.24.26v2.62a.312.312,0,0,0,.07.24.6.6,0,0,0,.17.1q.24.06.48.1.22.04.46.06t.46.02a3.44,3.44,0,0,0,2.62-.99,3.863,3.863,0,0,0,.94-2.77,4.294,4.294,0,0,0-.34-1.8,3.487,3.487,0,0,0-.87-1.2,3.237,3.237,0,0,0-1.18-.66,4.368,4.368,0,0,0-1.29-.2,5.546,5.546,0,0,0-.97.08,7.446,7.446,0,0,0-.79.18,5.7,5.7,0,0,0-.72.24q-.24.06-.26-.16a4.227,4.227,0,0,1-.09-.49q-.05-.35-.09-.55-.02-.16.04-.2a.194.194,0,0,1,.1-.04,9.063,9.063,0,0,1,1.26-.3,7.9,7.9,0,0,1,1.26-.1Zm16.28.9q.16.16.07.23t-.15.11a3.557,3.557,0,0,1-.58.36,3.665,3.665,0,0,1-.45.17,3.7,3.7,0,0,1-.47.11q-.02,0-.02.06.02.04.11.37a2.771,2.771,0,0,1,.09.73v6.94q0,.24-.26.24h-1.06q-.26,0-.26-.24V14.64q0-.26-.24-.26h-2.62a3.245,3.245,0,0,0-1.7.38,1.168,1.168,0,0,0-.62,1.04v.44q0,.16.01.32t.01.2a.864.864,0,0,0,.22.59.758.758,0,0,0,.6.25h.42a1.346,1.346,0,0,0,.22-.02q.26,0,.26.24l.02.98a.257.257,0,0,1-.24.28q-.2.02-.34.04a.409.409,0,0,1-.13.02h-.21a2.194,2.194,0,0,1-1.68-.66,1.941,1.941,0,0,1-.41-.57,4.808,4.808,0,0,1-.21-.55,3.113,3.113,0,0,1-.1-.58v-.76a2.541,2.541,0,0,1,1.02-2.1,4.22,4.22,0,0,1,2.74-.8h2.74q.24,0,.24-.26V11.82a2.333,2.333,0,0,0-.05-.42,1.055,1.055,0,0,0-.3-.52,1.936,1.936,0,0,0-.77-.44,4.567,4.567,0,0,0-1.44-.18,5.5,5.5,0,0,0-1.69.22,9.477,9.477,0,0,0-1.01.38.3.3,0,0,1-.2.01.21.21,0,0,1-.14-.13l-.48-.7a.293.293,0,0,1-.06-.18.143.143,0,0,1,.08-.14q.18-.1.51-.25a7.388,7.388,0,0,1,.8-.3,8.819,8.819,0,0,1,1.06-.26,7.05,7.05,0,0,1,1.29-.11,7.193,7.193,0,0,1,1.49.15,3.613,3.613,0,0,1,1.21.47.649.649,0,0,0,.18.1.493.493,0,0,0,.34,0,5.037,5.037,0,0,0,.68-.3,3.639,3.639,0,0,0,.4-.28.439.439,0,0,1,.13-.08q.09-.04.23.1Zm5.36,3.38a8.556,8.556,0,0,1,1.54.65,4.047,4.047,0,0,1,.99.75,2.346,2.346,0,0,1,.52.85,2.984,2.984,0,0,1,.15.95,2.5,2.5,0,0,1-.2.92,2.749,2.749,0,0,1-.65.94,3.563,3.563,0,0,1-1.16.73,4.58,4.58,0,0,1-1.73.29,5.417,5.417,0,0,1-1-.09,7.065,7.065,0,0,1-.88-.22,6.194,6.194,0,0,1-.7-.27q-.3-.14-.44-.22a.384.384,0,0,1-.2-.4l.18-.98a.163.163,0,0,1,.09-.13.172.172,0,0,1,.15.01q.32.18.99.49a3.864,3.864,0,0,0,1.63.31,3.159,3.159,0,0,0,1.8-.39,1.177,1.177,0,0,0,.54-.99,1.28,1.28,0,0,0-.47-1.02,4.827,4.827,0,0,0-1.61-.76q-.28-.08-.83-.28a5.853,5.853,0,0,1-1.12-.56,3.937,3.937,0,0,1-.99-.89,2.012,2.012,0,0,1-.42-1.29v-.1a2.216,2.216,0,0,1,.36-1.23,2.606,2.606,0,0,1,.87-.79,3.763,3.763,0,0,1,1.19-.42,7.589,7.589,0,0,1,1.36-.12,4.537,4.537,0,0,1,.83.08q.43.08.8.18t.67.2q.3.1.44.16a.136.136,0,0,1,.1.13.97.97,0,0,1-.02.19l-.18.86q-.04.22-.28.12a5.025,5.025,0,0,0-.79-.3,5.437,5.437,0,0,0-1.35-.22q-.28,0-.7.02a3.142,3.142,0,0,0-.8.14,1.763,1.763,0,0,0-.65.36.862.862,0,0,0-.27.68,1.051,1.051,0,0,0,.56.94A8.919,8.919,0,0,0,128.61,13.06Zm2.9-7.08q.26,0,.22.26l-.16.92a.284.284,0,0,1-.3.24h-4.08q-.26,0-.26-.24v-.9a.23.23,0,0,0-.26-.26h-.78a.231.231,0,0,1-.17-.07.145.145,0,0,1-.03-.17l.26-.94a.4.4,0,0,1,.13-.17.3.3,0,0,1,.19-.07h1.62a.23.23,0,0,1,.26.26v.88a.23.23,0,0,0,.26.26Zm4.3,2.88a4.749,4.749,0,0,1,1.89.32,2.956,2.956,0,0,1,1.13.81,2.772,2.772,0,0,1,.55,1.08,4.586,4.586,0,0,1,.15,1.13v6.54a.23.23,0,0,1-.26.26h-.98a.23.23,0,0,1-.26-.26V12.02a1.569,1.569,0,0,0-.87-1.53,2.514,2.514,0,0,0-.83-.25q-.46-.06-.88-.08a4.411,4.411,0,0,0-.8.07,5.058,5.058,0,0,0-.68.17,2.791,2.791,0,0,0-.64.26.26.26,0,0,1-.21.03.3.3,0,0,1-.17-.11l-.38-.6q-.16-.18.06-.34a6.956,6.956,0,0,1,.88-.38,6.6,6.6,0,0,1,2.3-.4Zm12.2,1.24a4.874,4.874,0,0,1,.68,1.4,7.269,7.269,0,0,1,.32,2.32,9.673,9.673,0,0,1-.18,1.9,4.594,4.594,0,0,1-.63,1.6,3.578,3.578,0,0,1-1.21,1.15,4.359,4.359,0,0,1-1.94.53h-1.38a.3.3,0,0,1-.32-.24l-2.7-9.06q-.08-.24.18-.32l1-.28q.24-.08.32.18.66,2.24,1.18,4,.22.76.44,1.49t.4,1.31q.18.58.29.95t.13.41a.219.219,0,0,0,.18.2.588.588,0,0,0,.14.02,3.3,3.3,0,0,0,.9-.13,1.76,1.76,0,0,0,.83-.54,3.05,3.05,0,0,0,.6-1.17,7.189,7.189,0,0,0,.23-2.02,6.483,6.483,0,0,0-.12-1.34,6.156,6.156,0,0,0-.26-.92,2.6,2.6,0,0,0-.26-.53l-.12-.17a1.984,1.984,0,0,0-.53-.39,2.48,2.48,0,0,0-1.01-.23.137.137,0,0,1-.12-.1l-.04-.16-.16-.84a.324.324,0,0,1,.01-.18q.03-.08.19-.08A3.656,3.656,0,0,1,148.01,10.1Zm6.04,2.96a8.555,8.555,0,0,1,1.54.65,4.047,4.047,0,0,1,.99.75,2.346,2.346,0,0,1,.52.85,2.985,2.985,0,0,1,.15.95,2.5,2.5,0,0,1-.2.92,2.749,2.749,0,0,1-.65.94,3.563,3.563,0,0,1-1.16.73,4.58,4.58,0,0,1-1.73.29,5.417,5.417,0,0,1-1-.09,7.065,7.065,0,0,1-.88-.22,6.193,6.193,0,0,1-.7-.27q-.3-.14-.44-.22a.384.384,0,0,1-.2-.4l.18-.98a.163.163,0,0,1,.09-.13.172.172,0,0,1,.15.01q.32.18.99.49a3.865,3.865,0,0,0,1.63.31,3.159,3.159,0,0,0,1.8-.39,1.177,1.177,0,0,0,.54-.99,1.28,1.28,0,0,0-.47-1.02,4.827,4.827,0,0,0-1.61-.76q-.28-.08-.83-.28a5.853,5.853,0,0,1-1.12-.56,3.937,3.937,0,0,1-.99-.89,2.012,2.012,0,0,1-.42-1.29v-.1a2.216,2.216,0,0,1,.36-1.23,2.606,2.606,0,0,1,.87-.79,3.763,3.763,0,0,1,1.19-.42,7.589,7.589,0,0,1,1.36-.12,4.537,4.537,0,0,1,.83.08q.43.08.8.18t.67.2q.3.1.44.16a.136.136,0,0,1,.1.13.97.97,0,0,1-.02.19l-.18.86q-.04.22-.28.12a5.025,5.025,0,0,0-.79-.3,5.437,5.437,0,0,0-1.35-.22q-.28,0-.7.02a3.142,3.142,0,0,0-.8.14,1.763,1.763,0,0,0-.65.36.862.862,0,0,0-.27.68,1.051,1.051,0,0,0,.56.94A8.92,8.92,0,0,0,154.05,13.06Zm2.9-7.08q.26,0,.22.26l-.16.92a.284.284,0,0,1-.3.24h-4.08q-.26,0-.26-.24v-.9a.23.23,0,0,0-.26-.26h-.78a.231.231,0,0,1-.17-.07.145.145,0,0,1-.03-.17l.26-.94a.4.4,0,0,1,.13-.17.3.3,0,0,1,.19-.07h1.62a.23.23,0,0,1,.26.26v.88a.23.23,0,0,0,.26.26Zm4.3,2.88a4.749,4.749,0,0,1,1.89.32,2.956,2.956,0,0,1,1.13.81,2.772,2.772,0,0,1,.55,1.08,4.586,4.586,0,0,1,.15,1.13v6.54a.23.23,0,0,1-.26.26h-.98a.23.23,0,0,1-.26-.26V12.02a1.569,1.569,0,0,0-.87-1.53,2.514,2.514,0,0,0-.83-.25q-.46-.06-.88-.08a4.411,4.411,0,0,0-.8.07,5.058,5.058,0,0,0-.68.17,2.791,2.791,0,0,0-.64.26.26.26,0,0,1-.21.03.3.3,0,0,1-.17-.11l-.38-.6q-.16-.18.06-.34a6.956,6.956,0,0,1,.88-.38,6.6,6.6,0,0,1,2.3-.4Zm13.78.08q.24,0,.24.26v9.54q0,.26-.24.26h-1.06a.23.23,0,0,1-.26-.26v-1.6q0-.16-.03-.11t-.05.09a4.559,4.559,0,0,1-.52.6,5.153,5.153,0,0,1-.81.65,4.836,4.836,0,0,1-1.07.52,3.973,3.973,0,0,1-1.32.21,3.044,3.044,0,0,1-1.52-.37,3.123,3.123,0,0,1-.86-.71l-.1-.15a2.776,2.776,0,0,1-.22-.43,4.383,4.383,0,0,1-.22-.7,4.264,4.264,0,0,1-.1-.98V9.2a.23.23,0,0,1,.26-.26h1.04a.23.23,0,0,1,.26.26v6.56a2.233,2.233,0,0,0,.34,1.34,1.6,1.6,0,0,0,.33.26,1.662,1.662,0,0,0,.89.18,4.01,4.01,0,0,0,1.51-.27,3.452,3.452,0,0,0,1.14-.73,3.358,3.358,0,0,0,.74-1.09,3.917,3.917,0,0,0,.31-1.33V9.2a.23.23,0,0,1,.26-.26Zm7.1-.16a5.7,5.7,0,0,1,1.69.25,4.709,4.709,0,0,1,1.42.7,3.6,3.6,0,0,1,.98,1.08,2.732,2.732,0,0,1,.37,1.41v6.52a.23.23,0,0,1-.26.26h-1.06a.23.23,0,0,1-.26-.26V12.52a2.083,2.083,0,0,0-.23-.98,2.432,2.432,0,0,0-.62-.76,2.78,2.78,0,0,0-.91-.49,3.584,3.584,0,0,0-1.12-.17,5.41,5.41,0,0,0-1.6.24,2.49,2.49,0,0,0-1.18.7.747.747,0,0,0-.12.17.767.767,0,0,0-.06.35v1.76q0,.22.03.2a.328.328,0,0,0,.05-.04,1.114,1.114,0,0,1,.55-.28,2.791,2.791,0,0,1,.51-.06h1.46a.268.268,0,0,1,.3.24l.14.78q.04.24-.22.24h-1.78a1.1,1.1,0,0,0-.55.12.906.906,0,0,0-.32.29.927.927,0,0,0-.14.37,2.45,2.45,0,0,0-.03.36v3.18a.23.23,0,0,1-.26.26h-1.06a.23.23,0,0,1-.26-.26V11.32a1.125,1.125,0,0,1,.04-.34,1.554,1.554,0,0,1,.08-.2,3.032,3.032,0,0,1,.75-.88,4.481,4.481,0,0,1,1.05-.63,5.674,5.674,0,0,1,1.25-.37A7.756,7.756,0,0,1,182.13,8.78Zm4.66-2.8q.26,0,.22.26l-.16.92a.284.284,0,0,1-.3.24h-4.08q-.26,0-.26-.24v-.9a.23.23,0,0,0-.26-.26h-.78a.231.231,0,0,1-.17-.07.145.145,0,0,1-.03-.17l.26-.94a.4.4,0,0,1,.13-.17.3.3,0,0,1,.19-.07h1.62a.23.23,0,0,1,.26.26v.88a.23.23,0,0,0,.26.26Zm4.3,2.88a4.749,4.749,0,0,1,1.89.32,2.956,2.956,0,0,1,1.13.81,2.772,2.772,0,0,1,.55,1.08,4.586,4.586,0,0,1,.15,1.13v6.54a.23.23,0,0,1-.26.26h-.98a.23.23,0,0,1-.26-.26V12.02a1.569,1.569,0,0,0-.87-1.53,2.514,2.514,0,0,0-.83-.25q-.46-.06-.88-.08a4.411,4.411,0,0,0-.8.07,5.058,5.058,0,0,0-.68.17,2.791,2.791,0,0,0-.64.26.26.26,0,0,1-.21.03.3.3,0,0,1-.17-.11l-.38-.6q-.16-.18.06-.34a6.956,6.956,0,0,1,.88-.38,6.6,6.6,0,0,1,2.3-.4Zm7.26,9.9q0,.24-.26.24h-1.06a.212.212,0,0,1-.24-.24V9.2q0-.26.24-.26h1.06a.23.23,0,0,1,.26.26Zm3.5,0q0,.24-.26.24h-1.04q-.26,0-.26-.24V9.2a.23.23,0,0,1,.26-.26h1.04a.23.23,0,0,1,.26.26Zm9.62-8.2a2.945,2.945,0,0,1,.28,1.26v6.92a.23.23,0,0,1-.26.26h-1.06a.23.23,0,0,1-.26-.26v-4.1a.23.23,0,0,0-.26-.26h-2.6a3.316,3.316,0,0,0-1.7.37,1.146,1.146,0,0,0-.62,1.03v.46q0,.18.01.33t.01.19a.888.888,0,0,0,.21.59.752.752,0,0,0,.61.25h.42a1.346,1.346,0,0,0,.22-.02q.26,0,.26.24l.02.98a.257.257,0,0,1-.24.28q-.2.02-.34.04a.409.409,0,0,1-.13.02h-.21a2.194,2.194,0,0,1-1.68-.66,2.33,2.33,0,0,1-.43-.57,2.365,2.365,0,0,1-.21-.55,2.248,2.248,0,0,1-.08-.58V16a2.576,2.576,0,0,1,.26-1.15,2.821,2.821,0,0,1,.74-.93,4.3,4.3,0,0,1,2.76-.8h2.72a.23.23,0,0,0,.26-.26V11.82a2.333,2.333,0,0,0-.05-.42,1.055,1.055,0,0,0-.3-.52,1.936,1.936,0,0,0-.77-.44,4.567,4.567,0,0,0-1.44-.18,5.5,5.5,0,0,0-1.69.22,9.477,9.477,0,0,0-1.01.38.26.26,0,0,1-.2,0,.253.253,0,0,1-.14-.12l-.48-.72a.293.293,0,0,1-.06-.18.143.143,0,0,1,.08-.14q.18-.1.51-.25a7.7,7.7,0,0,1,.79-.3,7.386,7.386,0,0,1,1.05-.25,7.737,7.737,0,0,1,1.29-.1,8.563,8.563,0,0,1,1.06.07,4.42,4.42,0,0,1,1.07.27,3.5,3.5,0,0,1,.93.54A2.323,2.323,0,0,1,211.47,10.56Zm5.68.4q.26,0,.22.24l-.18.94a.268.268,0,0,1-.3.24h-3.16q-.26,0-.26-.24v-1.5a.274.274,0,0,1,.26-.3l.7-.12q.26-.04.26.2v.28a.23.23,0,0,0,.26.26Zm0,5.38q.26,0,.22.26l-.18.92a.274.274,0,0,1-.3.26h-3.16a.23.23,0,0,1-.26-.26V16.04a.274.274,0,0,1,.26-.3l.7-.14q.26-.04.26.22v.28q0,.24.26.24Zm4.86-7.56a6.206,6.206,0,0,1,2.22.38,4.793,4.793,0,0,1,2.83,2.79,5.927,5.927,0,0,1,.39,2.19,5.756,5.756,0,0,1-.35,2.06,4.4,4.4,0,0,1-1,1.57,4.29,4.29,0,0,1-1.57.99,5.97,5.97,0,0,1-2.08.34,9.613,9.613,0,0,1-1.62-.14,9.122,9.122,0,0,1-1.5-.38q-.04-.02-.14-.08t-.1-.26v-4.9a.23.23,0,0,1,.26-.26h2.24a.274.274,0,0,1,.3.26l.12.74q.04.26-.22.26h-.92q-.24,0-.24.26v2.62a.312.312,0,0,0,.07.24.6.6,0,0,0,.17.1q.24.06.48.1.22.04.46.06t.46.02a3.44,3.44,0,0,0,2.62-.99,3.863,3.863,0,0,0,.94-2.77,4.293,4.293,0,0,0-.34-1.8,3.487,3.487,0,0,0-.87-1.2,3.237,3.237,0,0,0-1.18-.66,4.368,4.368,0,0,0-1.29-.2,5.546,5.546,0,0,0-.97.08,7.447,7.447,0,0,0-.79.18,5.7,5.7,0,0,0-.72.24q-.24.06-.26-.16a4.231,4.231,0,0,1-.09-.49q-.05-.35-.09-.55-.02-.16.04-.2a.194.194,0,0,1,.1-.04,9.063,9.063,0,0,1,1.26-.3,7.9,7.9,0,0,1,1.26-.1Zm7.12-2.7q.26,0,.22.24l-.16.84a.284.284,0,0,1-.3.24h-5.54a.266.266,0,0,1-.18-.07.218.218,0,0,1-.08-.17V5.8a.249.249,0,0,1,.08-.18.349.349,0,0,1,.18-.1l.7-.1a.174.174,0,0,1,.18.02.19.19,0,0,1,.08.16v.24q0,.24.26.24Zm10.68,2.86q.26,0,.22.26l-1.3,9.56a.257.257,0,0,1-.28.24h-.86a.431.431,0,0,1-.38-.22l-1.22-2.3-1.2-2.3q-.14-.2-.24,0l-1.22,2.3-1.22,2.3a.4.4,0,0,1-.38.22h-.86a.257.257,0,0,1-.28-.24l-1.3-9.56q-.04-.26.22-.26h1.06q.22,0,.3.26l.94,6.66.02.48q0,.1.02.11t.06-.09l.14-.5,2.2-4.32a.354.354,0,0,1,.16-.17.444.444,0,0,1,.22-.07h.06a.444.444,0,0,1,.22.07.354.354,0,0,1,.16.17l2.22,4.32.14.5q.02.1.04.09t.02-.11l.02-.48.96-6.66a.264.264,0,0,1,.28-.26Zm4,9.82a.212.212,0,0,1-.24.24h-1.06q-.26,0-.26-.24V9.2a.23.23,0,0,1,.26-.26h1.06q.24,0,.24.26Zm6.72-10.04a5.7,5.7,0,0,1,1.69.25,4.709,4.709,0,0,1,1.42.7,3.554,3.554,0,0,1,.98,1.09,2.748,2.748,0,0,1,.37,1.4v6.58a.23.23,0,0,1-.26.26h-1.06q-.24,0-.24-.26V12.46a2.083,2.083,0,0,0-.23-.98,2.432,2.432,0,0,0-.62-.76,2.764,2.764,0,0,0-.92-.49,3.678,3.678,0,0,0-1.13-.17,5.41,5.41,0,0,0-1.6.24,2.49,2.49,0,0,0-1.18.7.748.748,0,0,0-.12.17.767.767,0,0,0-.06.35v5.02a1.979,1.979,0,0,0,.05.44.818.818,0,0,0,.23.4.7.7,0,0,0,.18.12.836.836,0,0,0,.36.06h.44a1.347,1.347,0,0,0,.22-.02.23.23,0,0,1,.26.26l.02.98a.274.274,0,0,1-.26.3l-.24.04a1.124,1.124,0,0,1-.22.02h-.22a2.282,2.282,0,0,1-1.68-.68,1.941,1.941,0,0,1-.41-.57,4.808,4.808,0,0,1-.21-.55,3.113,3.113,0,0,1-.1-.58v-5.5a.885.885,0,0,1,.05-.3,2.071,2.071,0,0,1,.09-.22,2.7,2.7,0,0,1,.73-.9,4.414,4.414,0,0,1,1.06-.63,5.872,5.872,0,0,1,1.26-.37A7.643,7.643,0,0,1,250.53,8.72ZM257.31,19a.23.23,0,0,1-.26-.26V9.24q0-.24.26-.24h1.04q.26,0,.26.24v1.58q0,.16.03.12a.752.752,0,0,1,.07-.08,5.259,5.259,0,0,1,1.32-1.27,4.616,4.616,0,0,1,1.06-.52,3.972,3.972,0,0,1,1.32-.21,3.088,3.088,0,0,1,1.54.37,2.818,2.818,0,0,1,.84.71.7.7,0,0,0,.1.16,2.266,2.266,0,0,1,.22.43,4.771,4.771,0,0,1,.22.71,4.263,4.263,0,0,1,.1.98v6.52q0,.26-.24.26h-1.06a.23.23,0,0,1-.26-.26V12.22a3.425,3.425,0,0,0-.08-.78,1.546,1.546,0,0,0-.24-.56,1.724,1.724,0,0,0-.34-.27,1.6,1.6,0,0,0-.88-.19,4.009,4.009,0,0,0-1.51.27,3.371,3.371,0,0,0-1.14.74,3.506,3.506,0,0,0-.74,1.09,3.826,3.826,0,0,0-.31,1.32l-.01.22q-.01.22-.01.56v4.12q0,.26-.24.26Zm19.48-9.32q.16.16.07.23t-.15.11a3.557,3.557,0,0,1-.58.36,3.666,3.666,0,0,1-.45.17,3.7,3.7,0,0,1-.47.11q-.02,0-.02.06.02.04.11.37a2.771,2.771,0,0,1,.09.73v6.94q0,.24-.26.24h-1.06q-.26,0-.26-.24V14.64q0-.26-.24-.26h-2.62a3.244,3.244,0,0,0-1.7.38,1.168,1.168,0,0,0-.62,1.04v.44q0,.16.01.32t.01.2a.864.864,0,0,0,.22.59.758.758,0,0,0,.6.25h.42a1.346,1.346,0,0,0,.22-.02q.26,0,.26.24l.02.98a.257.257,0,0,1-.24.28q-.2.02-.34.04a.409.409,0,0,1-.13.02h-.21a2.194,2.194,0,0,1-1.68-.66,1.941,1.941,0,0,1-.41-.57,4.817,4.817,0,0,1-.21-.55,3.115,3.115,0,0,1-.1-.58v-.76a2.541,2.541,0,0,1,1.02-2.1,4.22,4.22,0,0,1,2.74-.8h2.74q.24,0,.24-.26V11.82a2.331,2.331,0,0,0-.05-.42,1.055,1.055,0,0,0-.3-.52,1.936,1.936,0,0,0-.77-.44,4.567,4.567,0,0,0-1.44-.18,5.5,5.5,0,0,0-1.69.22,9.475,9.475,0,0,0-1.01.38.3.3,0,0,1-.2.01.21.21,0,0,1-.14-.13l-.48-.7a.292.292,0,0,1-.06-.18.143.143,0,0,1,.08-.14q.18-.1.51-.25a7.389,7.389,0,0,1,.8-.3,8.818,8.818,0,0,1,1.06-.26,7.05,7.05,0,0,1,1.29-.11,7.193,7.193,0,0,1,1.49.15,3.613,3.613,0,0,1,1.21.47.649.649,0,0,0,.18.1.493.493,0,0,0,.34,0,5.035,5.035,0,0,0,.68-.3,3.639,3.639,0,0,0,.4-.28.439.439,0,0,1,.13-.08q.09-.04.23.1Zm-.62-3.7q.26,0,.22.26l-.16.9a.274.274,0,0,1-.3.26h-6.66q-.26,0-.22-.26l.16-.9a.274.274,0,0,1,.3-.26Zm10.72,2.96q.24,0,.24.26v9.54q0,.26-.24.26h-1.06a.23.23,0,0,1-.26-.26v-1.6q0-.16-.03-.11t-.05.09a4.563,4.563,0,0,1-.52.6,5.153,5.153,0,0,1-.81.65,4.835,4.835,0,0,1-1.07.52,3.972,3.972,0,0,1-1.32.21,3.044,3.044,0,0,1-1.52-.37,3.123,3.123,0,0,1-.86-.71l-.1-.15a2.773,2.773,0,0,1-.22-.43,4.386,4.386,0,0,1-.22-.7,4.263,4.263,0,0,1-.1-.98V9.2a.23.23,0,0,1,.26-.26h1.04a.23.23,0,0,1,.26.26v6.56a2.233,2.233,0,0,0,.34,1.34,1.6,1.6,0,0,0,.33.26,1.661,1.661,0,0,0,.89.18,4.01,4.01,0,0,0,1.51-.27,3.452,3.452,0,0,0,1.14-.73,3.358,3.358,0,0,0,.74-1.09,3.917,3.917,0,0,0,.31-1.33V9.2a.23.23,0,0,1,.26-.26Zm7.1-.16a5.7,5.7,0,0,1,1.69.25,4.709,4.709,0,0,1,1.42.7,3.6,3.6,0,0,1,.98,1.08,2.732,2.732,0,0,1,.37,1.41v6.52a.23.23,0,0,1-.26.26h-1.06a.23.23,0,0,1-.26-.26V12.52a2.083,2.083,0,0,0-.23-.98,2.432,2.432,0,0,0-.62-.76,2.781,2.781,0,0,0-.91-.49,3.584,3.584,0,0,0-1.12-.17,5.41,5.41,0,0,0-1.6.24,2.49,2.49,0,0,0-1.18.7.747.747,0,0,0-.12.17.766.766,0,0,0-.06.35v1.76q0,.22.03.2a.327.327,0,0,0,.05-.04,1.114,1.114,0,0,1,.55-.28,2.791,2.791,0,0,1,.51-.06h1.46a.268.268,0,0,1,.3.24l.14.78q.04.24-.22.24h-1.78a1.1,1.1,0,0,0-.55.12.906.906,0,0,0-.32.29.927.927,0,0,0-.14.37,2.452,2.452,0,0,0-.03.36v3.18a.23.23,0,0,1-.26.26h-1.06a.23.23,0,0,1-.26-.26V11.32a1.125,1.125,0,0,1,.04-.34,1.548,1.548,0,0,1,.08-.2,3.033,3.033,0,0,1,.75-.88,4.481,4.481,0,0,1,1.05-.63,5.673,5.673,0,0,1,1.25-.37A7.756,7.756,0,0,1,293.99,8.78Zm4.66-2.8q.26,0,.22.26l-.16.92a.284.284,0,0,1-.3.24h-4.08q-.26,0-.26-.24v-.9a.23.23,0,0,0-.26-.26h-.78a.231.231,0,0,1-.17-.07.145.145,0,0,1-.03-.17l.26-.94a.4.4,0,0,1,.13-.17.3.3,0,0,1,.19-.07h1.62a.23.23,0,0,1,.26.26v.88a.23.23,0,0,0,.26.26Zm4.3,2.88a4.749,4.749,0,0,1,1.89.32,2.956,2.956,0,0,1,1.13.81,2.772,2.772,0,0,1,.55,1.08,4.585,4.585,0,0,1,.15,1.13v6.54a.23.23,0,0,1-.26.26h-.98a.23.23,0,0,1-.26-.26V12.02a1.569,1.569,0,0,0-.87-1.53,2.514,2.514,0,0,0-.83-.25q-.46-.06-.88-.08a4.411,4.411,0,0,0-.8.07,5.057,5.057,0,0,0-.68.17,2.791,2.791,0,0,0-.64.26.26.26,0,0,1-.21.03.3.3,0,0,1-.17-.11l-.38-.6q-.16-.18.06-.34a6.955,6.955,0,0,1,.88-.38,6.6,6.6,0,0,1,2.3-.4Zm12.22.08a.23.23,0,0,1,.26.26v8.6a.4.4,0,0,1-.22.38q-.52.26-1.04.46-.46.16-1.02.3a4.524,4.524,0,0,1-1.1.14,5.532,5.532,0,0,1-2.05-.32,3.27,3.27,0,0,1-1.23-.81,2.534,2.534,0,0,1-.59-1.1,4.974,4.974,0,0,1-.15-1.19V13.6a1.305,1.305,0,0,1,.36-.95,7.634,7.634,0,0,1,.74-.67q.28-.24.5-.46a.689.689,0,0,0,.22-.5v-.44a.23.23,0,0,0-.26-.26h-1.3q-.26,0-.22-.26l.12-.86a.274.274,0,0,1,.3-.26h2.68a.23.23,0,0,1,.26.26v1.86a1.455,1.455,0,0,1-.35,1.01,9.429,9.429,0,0,1-.73.73,5.443,5.443,0,0,0-.53.48.808.808,0,0,0-.23.58V15.4a2.632,2.632,0,0,0,.2,1.12,1.7,1.7,0,0,0,.51.65,1.749,1.749,0,0,0,.69.31,3.588,3.588,0,0,0,.74.08,4.238,4.238,0,0,0,1.44-.18,4.35,4.35,0,0,0,.62-.28.266.266,0,0,0,.06-.09.905.905,0,0,0,.02-.25V9.2a.23.23,0,0,1,.26-.26Zm4.96-.16a6.206,6.206,0,0,1,2.22.38,4.792,4.792,0,0,1,2.83,2.79,5.927,5.927,0,0,1,.39,2.19,5.756,5.756,0,0,1-.35,2.06,4.4,4.4,0,0,1-1,1.57,4.29,4.29,0,0,1-1.57.99,5.97,5.97,0,0,1-2.08.34,9.612,9.612,0,0,1-1.62-.14,9.122,9.122,0,0,1-1.5-.38q-.04-.02-.14-.08t-.1-.26v-4.9a.23.23,0,0,1,.26-.26h2.24a.274.274,0,0,1,.3.26l.12.74q.04.26-.22.26h-.92q-.24,0-.24.26v2.62a.312.312,0,0,0,.07.24.6.6,0,0,0,.17.1q.24.06.48.1.22.04.46.06t.46.02a3.44,3.44,0,0,0,2.62-.99,3.863,3.863,0,0,0,.94-2.77,4.293,4.293,0,0,0-.34-1.8,3.487,3.487,0,0,0-.87-1.2,3.237,3.237,0,0,0-1.18-.66,4.368,4.368,0,0,0-1.29-.2,5.546,5.546,0,0,0-.97.08,7.446,7.446,0,0,0-.79.18,5.7,5.7,0,0,0-.72.24q-.24.06-.26-.16a4.224,4.224,0,0,1-.09-.49q-.05-.35-.09-.55-.02-.16.04-.2a.2.2,0,0,1,.1-.04,9.063,9.063,0,0,1,1.26-.3,7.9,7.9,0,0,1,1.26-.1Zm13.78,1.32a4.874,4.874,0,0,1,.68,1.4,7.269,7.269,0,0,1,.32,2.32,9.674,9.674,0,0,1-.18,1.9,4.593,4.593,0,0,1-.63,1.6,3.578,3.578,0,0,1-1.21,1.15,4.359,4.359,0,0,1-1.94.53h-1.38a.3.3,0,0,1-.32-.24l-2.7-9.06q-.08-.24.18-.32l1-.28q.24-.08.32.18.66,2.24,1.18,4,.22.76.44,1.49t.4,1.31q.18.58.29.95t.13.41a.219.219,0,0,0,.18.2.588.588,0,0,0,.14.02,3.3,3.3,0,0,0,.9-.13,1.761,1.761,0,0,0,.83-.54,3.05,3.05,0,0,0,.6-1.17,7.188,7.188,0,0,0,.23-2.02,6.481,6.481,0,0,0-.12-1.34,6.156,6.156,0,0,0-.26-.92,2.6,2.6,0,0,0-.26-.53l-.12-.17a1.984,1.984,0,0,0-.53-.39,2.48,2.48,0,0,0-1.01-.23.137.137,0,0,1-.12-.1l-.04-.16-.16-.84a.324.324,0,0,1,.01-.18q.03-.08.19-.08A3.656,3.656,0,0,1,333.91,10.1Zm7-1.32a5.7,5.7,0,0,1,1.69.25,4.709,4.709,0,0,1,1.42.7,3.6,3.6,0,0,1,.98,1.08,2.732,2.732,0,0,1,.37,1.41v6.52a.23.23,0,0,1-.26.26h-1.06a.23.23,0,0,1-.26-.26V12.52a2.083,2.083,0,0,0-.23-.98,2.432,2.432,0,0,0-.62-.76,2.781,2.781,0,0,0-.91-.49,3.584,3.584,0,0,0-1.12-.17,5.41,5.41,0,0,0-1.6.24,2.49,2.49,0,0,0-1.18.7.747.747,0,0,0-.12.17.766.766,0,0,0-.06.35v1.76q0,.22.03.2a.327.327,0,0,0,.05-.04,1.114,1.114,0,0,1,.55-.28,2.791,2.791,0,0,1,.51-.06h1.46a.268.268,0,0,1,.3.24l.14.78q.04.24-.22.24h-1.78a1.1,1.1,0,0,0-.55.12.906.906,0,0,0-.32.29.927.927,0,0,0-.14.37,2.452,2.452,0,0,0-.03.36v3.18a.23.23,0,0,1-.26.26h-1.06a.23.23,0,0,1-.26-.26V11.32a1.125,1.125,0,0,1,.04-.34,1.548,1.548,0,0,1,.08-.2,3.033,3.033,0,0,1,.75-.88,4.481,4.481,0,0,1,1.05-.63,5.673,5.673,0,0,1,1.25-.37A7.756,7.756,0,0,1,340.91,8.78Zm4.24,11.72q.26,0,.26.24V24.2a.23.23,0,0,1-.26.26h-1.02a.23.23,0,0,1-.26-.26V22.04a.23.23,0,0,0-.26-.26h-.76q-.24,0-.2-.24l.14-.8a.268.268,0,0,1,.3-.24ZM361.57,8.94a.212.212,0,0,1,.24.24v9.56q0,.26-.24.26h-1.06a.333.333,0,0,1-.18-.05.231.231,0,0,1-.08-.21V17.32a.213.213,0,0,0-.02-.11q-.02-.03-.06.01a6.667,6.667,0,0,1-.47.59,4.329,4.329,0,0,1-.7.63,4.282,4.282,0,0,1-.93.51,3.072,3.072,0,0,1-1.16.21,2.587,2.587,0,0,1-1.42-.4,2.919,2.919,0,0,1-.8-.74,2.874,2.874,0,0,1-.27-.45,2.561,2.561,0,0,1-.18-.54,5.9,5.9,0,0,1-.11-.72q-.04-.41-.04-.97V12.52a2.041,2.041,0,0,0-.28-1.13,1.946,1.946,0,0,0-.7-.66,2.829,2.829,0,0,0-.89-.31,5.017,5.017,0,0,0-.83-.08,5.823,5.823,0,0,0-1.61.19,5.129,5.129,0,0,0-.83.29.28.28,0,0,0-.13.15.539.539,0,0,0-.03.17v6.04a.23.23,0,0,0,.26.26h.68q.26,0,.22.26l-.16,1.04a.251.251,0,0,1-.28.26h-2.02a.23.23,0,0,1-.26-.26V10.06a.361.361,0,0,1,.24-.36,8.255,8.255,0,0,1,1.71-.64,9.108,9.108,0,0,1,1.91-.28,6.362,6.362,0,0,1,2.16.32,4.15,4.15,0,0,1,1.42.82,2.912,2.912,0,0,1,.77,1.11,3.361,3.361,0,0,1,.23,1.19V15.8a2.342,2.342,0,0,0,.3,1.34,1.33,1.33,0,0,0,.28.28,1.181,1.181,0,0,0,.74.18,2.893,2.893,0,0,0,1.33-.3,3.03,3.03,0,0,0,1-.81,4.106,4.106,0,0,0,.65-1.16,4.64,4.64,0,0,0,.28-1.35V9.18q0-.16.08-.2a.4.4,0,0,1,.18-.04Z" transform="translate(68 432)" fill="#fff"/></g></svg>